<svg xmlns="http://www.w3.org/2000/svg" width="1212.6767578125" height="1080.171142578125" viewBox="-586.0585327148438 -343.0053405761719 1212.6767578125 1080.171142578125"><title>Neo4j Graph Visualization</title><desc>Created using Neo4j (http://www.neo4j.com/)</desc><g class="layer relationships"><g class="relationship" transform="translate(-80.29138096216009 585.5571544979666) rotate(438.4010150927191)"><path class="outline" fill="#4C8EDA" stroke="none" d="M 25 0.5 L 42.05493548484568 0.5 L 42.05493548484568 -0.5 L 25 -0.5 Z M 60.95337298484568 0.5 L 78.00830846969136 0.5 L 78.00830846969136 3.5 L 85.00830846969136 0 L 78.00830846969136 -3.5 L 78.00830846969136 -0.5 L 60.95337298484568 -0.5 Z"/><text text-anchor="middle" pointer-events="none" font-size="8px" fill="#000000" x="51.50415423484568" y="3" font-family="sans-serif">sue</text></g><g class="relationship" transform="translate(-80.29138096216009 585.5571544979666) rotate(515.7075280294754)"><path class="outline" fill="#4C8EDA" stroke="none" d="M 25 0.5 L 41.99656083956954 0.5 L 41.99656083956954 -0.5 L 25 -0.5 Z M 60.89499833956954 0.5 L 77.89155917913908 0.5 L 77.89155917913908 3.5 L 84.89155917913908 0 L 77.89155917913908 -3.5 L 77.89155917913908 -0.5 L 60.89499833956954 -0.5 Z"/><text text-anchor="middle" pointer-events="none" font-size="8px" fill="#000000" x="51.44577958956954" y="3" transform="rotate(180 51.44577958956954 0)" font-family="sans-serif">sue</text></g><g class="relationship" transform="translate(-80.29138096216009 585.5571544979666) rotate(375.64785228424023)"><path class="outline" fill="#4C8EDA" stroke="none" d="M 25 0.5 L 41.03793753825707 0.5 L 41.03793753825707 -0.5 L 25 -0.5 Z M 59.93637503825707 0.5 L 75.97431257651414 0.5 L 75.97431257651414 3.5 L 82.97431257651414 0 L 75.97431257651414 -3.5 L 75.97431257651414 -0.5 L 59.93637503825707 -0.5 Z"/><text text-anchor="middle" pointer-events="none" font-size="8px" fill="#000000" x="50.48715628825707" y="3" font-family="sans-serif">sue</text></g><g class="relationship" transform="translate(-80.29138096216009 585.5571544979666) rotate(215.32021536215393)"><path class="outline" fill="#4C8EDA" stroke="none" d="M 25 0.5 L 41.5319664874382 0.5 L 41.5319664874382 -0.5 L 25 -0.5 Z M 60.4304039874382 0.5 L 76.9623704748764 0.5 L 76.9623704748764 3.5 L 83.9623704748764 0 L 76.9623704748764 -3.5 L 76.9623704748764 -0.5 L 60.4304039874382 -0.5 Z"/><text text-anchor="middle" pointer-events="none" font-size="8px" fill="#000000" x="50.9811852374382" y="3" transform="rotate(180 50.9811852374382 0)" font-family="sans-serif">sue</text></g><g class="relationship" transform="translate(467.8126854111957 455.9933357607346) rotate(442.3570688441914)"><path class="outline" fill="#4C8EDA" stroke="none" d="M 25 0.5 L 43.332149612542 0.5 L 43.332149612542 -0.5 L 25 -0.5 Z M 62.230587112542 0.5 L 80.562736725084 0.5 L 80.562736725084 3.5 L 87.562736725084 0 L 80.562736725084 -3.5 L 80.562736725084 -0.5 L 62.230587112542 -0.5 Z"/><text text-anchor="middle" pointer-events="none" font-size="8px" fill="#000000" x="52.781368362542" y="3" font-family="sans-serif">sue</text></g><g class="relationship" transform="translate(467.8126854111957 455.9933357607346) rotate(339.71134283712206)"><path class="outline" fill="#4C8EDA" stroke="none" d="M 25 0.5 L 48.49862578432503 0.5 L 48.49862578432503 -0.5 L 25 -0.5 Z M 67.39706328432503 0.5 L 90.89568906865006 0.5 L 90.89568906865006 3.5 L 97.89568906865006 0 L 90.89568906865006 -3.5 L 90.89568906865006 -0.5 L 67.39706328432503 -0.5 Z"/><text text-anchor="middle" pointer-events="none" font-size="8px" fill="#000000" x="57.94784453432503" y="3" font-family="sans-serif">sue</text></g><g class="relationship" transform="translate(467.8126854111957 455.9933357607346) rotate(384.49789363858133)"><path class="outline" fill="#4C8EDA" stroke="none" d="M 25 0.5 L 44.259560514047024 0.5 L 44.259560514047024 -0.5 L 25 -0.5 Z M 63.157998014047024 0.5 L 82.41755852809405 0.5 L 82.41755852809405 3.5 L 89.41755852809405 0 L 82.41755852809405 -3.5 L 82.41755852809405 -0.5 L 63.157998014047024 -0.5 Z"/><text text-anchor="middle" pointer-events="none" font-size="8px" fill="#000000" x="53.708779264047024" y="3" font-family="sans-serif">sue</text></g><g class="relationship" transform="translate(467.8126854111957 455.9933357607346) rotate(301.8908211983639)"><path class="outline" fill="#4C8EDA" stroke="none" d="M 25 0.5 L 45.9851234455055 0.5 L 45.9851234455055 -0.5 L 25 -0.5 Z M 64.88356094550551 0.5 L 85.868684391011 0.5 L 85.868684391011 3.5 L 92.868684391011 0 L 85.868684391011 -3.5 L 85.868684391011 -0.5 L 64.88356094550551 -0.5 Z"/><text text-anchor="middle" pointer-events="none" font-size="8px" fill="#000000" x="55.4343421955055" y="3" font-family="sans-serif">sue</text></g><g class="relationship" transform="translate(124.53180966677684 -77.9680877651482) rotate(467.1972914784884)"><path class="outline" fill="#4C8EDA" stroke="none" d="M 25 0.5 L 105.155820135188 0.5 L 105.155820135188 -0.5 L 25 -0.5 Z M 124.054257635188 0.5 L 204.210077770376 0.5 L 204.210077770376 3.5 L 211.210077770376 0 L 204.210077770376 -3.5 L 204.210077770376 -0.5 L 124.054257635188 -0.5 Z"/><text text-anchor="middle" pointer-events="none" font-size="8px" fill="#000000" x="114.605038885188" y="3" transform="rotate(180 114.605038885188 0)" font-family="sans-serif">sue</text></g><g class="relationship" transform="translate(124.53180966677684 -77.9680877651482) rotate(186.50990879567098)"><path class="outline" fill="#4C8EDA" stroke="none" d="M 25 0.5 L 96.01067722854712 0.5 L 96.01067722854712 -0.5 L 25 -0.5 Z M 114.90911472854712 0.5 L 185.91979195709425 0.5 L 185.91979195709425 3.5 L 192.91979195709425 0 L 185.91979195709425 -3.5 L 185.91979195709425 -0.5 L 114.90911472854712 -0.5 Z"/><text text-anchor="middle" pointer-events="none" font-size="8px" fill="#000000" x="105.45989597854712" y="3" transform="rotate(180 105.45989597854712 0)" font-family="sans-serif">sue</text></g><g class="relationship" transform="translate(124.53180966677684 -77.9680877651482) rotate(406.83502451420475)"><path class="outline" fill="#4C8EDA" stroke="none" d="M 25 0.5 L 76.93879108362269 0.5 L 76.93879108362269 -0.5 L 25 -0.5 Z M 95.83722858362269 0.5 L 147.77601966724538 0.5 L 147.77601966724538 3.5 L 154.77601966724538 0 L 147.77601966724538 -3.5 L 147.77601966724538 -0.5 L 95.83722858362269 -0.5 Z"/><text text-anchor="middle" pointer-events="none" font-size="8px" fill="#000000" x="86.38800983362269" y="3" font-family="sans-serif">sue</text></g><g class="relationship" transform="translate(124.53180966677684 -77.9680877651482) rotate(481.32838305544124)"><path class="outline" fill="#4C8EDA" stroke="none" d="M 25 0.5 L 47.744305514953794 0.5 L 47.744305514953794 -0.5 L 25 -0.5 Z M 66.6427430149538 0.5 L 89.38704852990759 0.5 L 89.38704852990759 3.5 L 96.38704852990759 0 L 89.38704852990759 -3.5 L 89.38704852990759 -0.5 L 66.6427430149538 -0.5 Z"/><text text-anchor="middle" pointer-events="none" font-size="8px" fill="#000000" x="57.193524264953794" y="3" transform="rotate(180 57.193524264953794 0)" font-family="sans-serif">sue</text></g><g class="relationship" transform="translate(124.53180966677684 -77.9680877651482) rotate(390.4925459510342)"><path class="outline" fill="#4C8EDA" stroke="none" d="M 25 0.5 L 99.73003329530631 0.5 L 99.73003329530631 -0.5 L 25 -0.5 Z M 118.62847079530631 0.5 L 193.35850409061263 0.5 L 193.35850409061263 3.5 L 200.35850409061263 0 L 193.35850409061263 -3.5 L 193.35850409061263 -0.5 L 118.62847079530631 -0.5 Z"/><text text-anchor="middle" pointer-events="none" font-size="8px" fill="#000000" x="109.17925204530631" y="3" font-family="sans-serif">sue</text></g><g class="relationship" transform="translate(124.53180966677684 -77.9680877651482) rotate(514.8797607829392)"><path class="outline" fill="#4C8EDA" stroke="none" d="M 25 0.5 L 105.72881483928438 0.5 L 105.72881483928438 -0.5 L 25 -0.5 Z M 124.62725233928438 0.5 L 205.35606717856876 0.5 L 205.35606717856876 3.5 L 212.35606717856876 0 L 205.35606717856876 -3.5 L 205.35606717856876 -0.5 L 124.62725233928438 -0.5 Z"/><text text-anchor="middle" pointer-events="none" font-size="8px" fill="#000000" x="115.17803358928438" y="3" transform="rotate(180 115.17803358928438 0)" font-family="sans-serif">sue</text></g><g class="relationship" transform="translate(124.53180966677684 -77.9680877651482) rotate(371.9488228460076)"><path class="outline" fill="#4C8EDA" stroke="none" d="M 25 0.5 L 99.37382556847896 0.5 L 99.37382556847896 -0.5 L 25 -0.5 Z M 118.27226306847896 0.5 L 192.64608863695793 0.5 L 192.64608863695793 3.5 L 199.64608863695793 0 L 192.64608863695793 -3.5 L 192.64608863695793 -0.5 L 118.27226306847896 -0.5 Z"/><text text-anchor="middle" pointer-events="none" font-size="8px" fill="#000000" x="108.82304431847896" y="3" font-family="sans-serif">sue</text></g><g class="relationship" transform="translate(124.53180966677684 -77.9680877651482) rotate(461.0694908338898)"><path class="outline" fill="#4C8EDA" stroke="none" d="M 25 0.5 L 69.34117938082306 0.5 L 69.34117938082306 -0.5 L 25 -0.5 Z M 88.23961688082306 0.5 L 132.58079626164613 0.5 L 132.58079626164613 3.5 L 139.58079626164613 0 L 132.58079626164613 -3.5 L 132.58079626164613 -0.5 L 88.23961688082306 -0.5 Z"/><text text-anchor="middle" pointer-events="none" font-size="8px" fill="#000000" x="78.79039813082306" y="3" transform="rotate(180 78.79039813082306 0)" font-family="sans-serif">sue</text></g><g class="relationship" transform="translate(124.53180966677684 -77.9680877651482) rotate(323.1516756290978)"><path class="outline" fill="#4C8EDA" stroke="none" d="M 25 0.5 L 84.47741091997145 0.5 L 84.47741091997145 -0.5 L 25 -0.5 Z M 103.37584841997145 0.5 L 162.8532593399429 0.5 L 162.8532593399429 3.5 L 169.8532593399429 0 L 162.8532593399429 -3.5 L 162.8532593399429 -0.5 L 103.37584841997145 -0.5 Z"/><text text-anchor="middle" pointer-events="none" font-size="8px" fill="#000000" x="93.92662966997145" y="3" font-family="sans-serif">sue</text></g><g class="relationship" transform="translate(124.53180966677684 -77.9680877651482) rotate(251.85944493481543)"><path class="outline" fill="#4C8EDA" stroke="none" d="M 25 0.5 L 56.112317618850824 0.5 L 56.112317618850824 -0.5 L 25 -0.5 Z M 75.01075511885082 0.5 L 106.12307273770165 0.5 L 106.12307273770165 3.5 L 113.12307273770165 0 L 106.12307273770165 -3.5 L 106.12307273770165 -0.5 L 75.01075511885082 -0.5 Z"/><text text-anchor="middle" pointer-events="none" font-size="8px" fill="#000000" x="65.56153636885082" y="3" transform="rotate(180 65.56153636885082 0)" font-family="sans-serif">sue</text></g><g class="relationship" transform="translate(124.53180966677684 -77.9680877651482) rotate(224.5563736496294)"><path class="outline" fill="#4C8EDA" stroke="none" d="M 25 0.5 L 65.06255866300843 0.5 L 65.06255866300843 -0.5 L 25 -0.5 Z M 83.96099616300843 0.5 L 124.02355482601686 0.5 L 124.02355482601686 3.5 L 131.02355482601686 0 L 124.02355482601686 -3.5 L 124.02355482601686 -0.5 L 83.96099616300843 -0.5 Z"/><text text-anchor="middle" pointer-events="none" font-size="8px" fill="#000000" x="74.51177741300843" y="3" transform="rotate(180 74.51177741300843 0)" font-family="sans-serif">sue</text></g><g class="relationship" transform="translate(124.53180966677684 -77.9680877651482) rotate(342.29546968502575)"><path class="outline" fill="#4C8EDA" stroke="none" d="M 25 0.5 L 96.23082842600063 0.5 L 96.23082842600063 -0.5 L 25 -0.5 Z M 115.12926592600063 0.5 L 186.36009435200125 0.5 L 186.36009435200125 3.5 L 193.36009435200125 0 L 186.36009435200125 -3.5 L 186.36009435200125 -0.5 L 115.12926592600063 -0.5 Z"/><text text-anchor="middle" pointer-events="none" font-size="8px" fill="#000000" x="105.68004717600063" y="3" font-family="sans-serif">sue</text></g><g class="relationship" transform="translate(124.53180966677684 -77.9680877651482) rotate(454.14651796601964)"><path class="outline" fill="#4C8EDA" stroke="none" d="M 25 0.5 L 34.92327828914702 0.5 L 34.92327828914702 -0.5 L 25 -0.5 Z M 53.82171578914702 0.5 L 63.74499407829404 0.5 L 63.74499407829404 3.5 L 70.74499407829404 0 L 63.74499407829404 -3.5 L 63.74499407829404 -0.5 L 53.82171578914702 -0.5 Z"/><text text-anchor="middle" pointer-events="none" font-size="8px" fill="#000000" x="44.37249703914702" y="3" transform="rotate(180 44.37249703914702 0)" font-family="sans-serif">sue</text></g><g class="relationship" transform="translate(124.53180966677684 -77.9680877651482) rotate(305.7484989994653)"><path class="outline" fill="#4C8EDA" stroke="none" d="M 25 0.5 L 57.73826454238838 0.5 L 57.73826454238838 -0.5 L 25 -0.5 Z M 76.63670204238838 0.5 L 109.37496658477676 0.5 L 109.37496658477676 3.5 L 116.37496658477676 0 L 109.37496658477676 -3.5 L 109.37496658477676 -0.5 L 76.63670204238838 -0.5 Z"/><text text-anchor="middle" pointer-events="none" font-size="8px" fill="#000000" x="67.18748329238838" y="3" font-family="sans-serif">sue</text></g><g class="relationship" transform="translate(124.53180966677684 -77.9680877651482) rotate(303.6795509787243)"><path class="outline" fill="#4C8EDA" stroke="none" d="M 25 0.5 L 94.99574612816022 0.5 L 94.99574612816022 -0.5 L 25 -0.5 Z M 113.89418362816022 0.5 L 183.88992975632044 0.5 L 183.88992975632044 3.5 L 190.88992975632044 0 L 183.88992975632044 -3.5 L 183.88992975632044 -0.5 L 113.89418362816022 -0.5 Z"/><text text-anchor="middle" pointer-events="none" font-size="8px" fill="#000000" x="104.44496487816022" y="3" font-family="sans-serif">sue</text></g><g class="relationship" transform="translate(124.53180966677684 -77.9680877651482) rotate(335.7273491387232)"><path class="outline" fill="#4C8EDA" stroke="none" d="M 25 0.5 L 51.76971400490365 0.5 L 51.76971400490365 -0.5 L 25 -0.5 Z M 70.66815150490365 0.5 L 97.4378655098073 0.5 L 97.4378655098073 3.5 L 104.4378655098073 0 L 97.4378655098073 -3.5 L 97.4378655098073 -0.5 L 70.66815150490365 -0.5 Z"/><text text-anchor="middle" pointer-events="none" font-size="8px" fill="#000000" x="61.21893275490365" y="3" font-family="sans-serif">sue</text></g><g class="relationship" transform="translate(124.53180966677684 -77.9680877651482) rotate(285.22785537316247)"><path class="outline" fill="#4C8EDA" stroke="none" d="M 25 0.5 L 101.72749151610653 0.5 L 101.72749151610653 -0.5 L 25 -0.5 Z M 120.62592901610653 0.5 L 197.35342053221305 0.5 L 197.35342053221305 3.5 L 204.35342053221305 0 L 197.35342053221305 -3.5 L 197.35342053221305 -0.5 L 120.62592901610653 -0.5 Z"/><text text-anchor="middle" pointer-events="none" font-size="8px" fill="#000000" x="111.17671026610653" y="3" font-family="sans-serif">sue</text></g><g class="relationship" transform="translate(124.53180966677684 -77.9680877651482) rotate(358.14623086827305)"><path class="outline" fill="#4C8EDA" stroke="none" d="M 25 0.5 L 70.80547270470652 0.5 L 70.80547270470652 -0.5 L 25 -0.5 Z M 89.70391020470652 0.5 L 135.50938290941303 0.5 L 135.50938290941303 3.5 L 142.50938290941303 0 L 135.50938290941303 -3.5 L 135.50938290941303 -0.5 L 89.70391020470652 -0.5 Z"/><text text-anchor="middle" pointer-events="none" font-size="8px" fill="#000000" x="80.25469145470652" y="3" font-family="sans-serif">sue</text></g><g class="relationship" transform="translate(124.53180966677684 -77.9680877651482) rotate(261.78703435779437)"><path class="outline" fill="#4C8EDA" stroke="none" d="M 25 0.5 L 90.90463763100263 0.5 L 90.90463763100263 -0.5 L 25 -0.5 Z M 109.80307513100263 0.5 L 175.70771276200526 0.5 L 175.70771276200526 3.5 L 182.70771276200526 0 L 175.70771276200526 -3.5 L 175.70771276200526 -0.5 L 109.80307513100263 -0.5 Z"/><text text-anchor="middle" pointer-events="none" font-size="8px" fill="#000000" x="100.35385638100263" y="3" transform="rotate(180 100.35385638100263 0)" font-family="sans-serif">sue</text></g><g class="relationship" transform="translate(124.53180966677684 -77.9680877651482) rotate(359.84424477417497)"><path class="outline" fill="#4C8EDA" stroke="none" d="M 25 0.5 L 34.984463042829134 0.5 L 34.984463042829134 -0.5 L 25 -0.5 Z M 53.882900542829134 0.5 L 63.86736358565827 0.5 L 63.86736358565827 3.5 L 70.86736358565827 0 L 63.86736358565827 -3.5 L 63.86736358565827 -0.5 L 53.882900542829134 -0.5 Z"/><text text-anchor="middle" pointer-events="none" font-size="8px" fill="#000000" x="44.433681792829134" y="3" font-family="sans-serif">sue</text></g><g class="relationship" transform="translate(124.53180966677684 -77.9680877651482) rotate(282.09166527925163)"><path class="outline" fill="#4C8EDA" stroke="none" d="M 25 0.5 L 28.7835619031434 0.5 L 28.7835619031434 -0.5 L 25 -0.5 Z M 47.6819994031434 0.5 L 51.4655613062868 0.5 L 51.4655613062868 3.5 L 58.4655613062868 0 L 51.4655613062868 -3.5 L 51.4655613062868 -0.5 L 47.6819994031434 -0.5 Z"/><text text-anchor="middle" pointer-events="none" font-size="8px" fill="#000000" x="38.2327806531434" y="3" font-family="sans-serif">sue</text></g><g class="relationship" transform="translate(124.53180966677684 -77.9680877651482) rotate(190.23765500888686)"><path class="outline" fill="#4C8EDA" stroke="none" d="M 25 0.5 L 59.0606352546144 0.5 L 59.0606352546144 -0.5 L 25 -0.5 Z M 77.9590727546144 0.5 L 112.0197080092288 0.5 L 112.0197080092288 3.5 L 119.0197080092288 0 L 112.0197080092288 -3.5 L 112.0197080092288 -0.5 L 77.9590727546144 -0.5 Z"/><text text-anchor="middle" pointer-events="none" font-size="8px" fill="#000000" x="68.5098540046144" y="3" transform="rotate(180 68.5098540046144 0)" font-family="sans-serif">sue</text></g><g class="relationship" transform="translate(124.53180966677684 -77.9680877651482) rotate(223.63629490667188)"><path class="outline" fill="#4C8EDA" stroke="none" d="M 25 0.5 L 102.44644034486247 0.5 L 102.44644034486247 -0.5 L 25 -0.5 Z M 121.34487784486247 0.5 L 198.79131818972493 0.5 L 198.79131818972493 3.5 L 205.79131818972493 0 L 198.79131818972493 -3.5 L 198.79131818972493 -0.5 L 121.34487784486247 -0.5 Z"/><text text-anchor="middle" pointer-events="none" font-size="8px" fill="#000000" x="111.89565909486247" y="3" transform="rotate(180 111.89565909486247 0)" font-family="sans-serif">sue</text></g><g class="relationship" transform="translate(124.53180966677684 -77.9680877651482) rotate(407.5249331497539)"><path class="outline" fill="#4C8EDA" stroke="none" d="M 25 0.5 L 39.47576757068179 0.5 L 39.47576757068179 -0.5 L 25 -0.5 Z M 58.37420507068179 0.5 L 72.84997264136358 0.5 L 72.84997264136358 3.5 L 79.84997264136358 0 L 72.84997264136358 -3.5 L 72.84997264136358 -0.5 L 58.37420507068179 -0.5 Z"/><text text-anchor="middle" pointer-events="none" font-size="8px" fill="#000000" x="48.92498632068179" y="3" font-family="sans-serif">sue</text></g><g class="relationship" transform="translate(124.53180966677684 -77.9680877651482) rotate(278.7983569105851)"><path class="outline" fill="#4C8EDA" stroke="none" d="M 25 0.5 L 66.01993478166065 0.5 L 66.01993478166065 -0.5 L 25 -0.5 Z M 84.91837228166065 0.5 L 125.9383070633213 0.5 L 125.9383070633213 3.5 L 132.9383070633213 0 L 125.9383070633213 -3.5 L 125.9383070633213 -0.5 L 84.91837228166065 -0.5 Z"/><text text-anchor="middle" pointer-events="none" font-size="8px" fill="#000000" x="75.46915353166065" y="3" font-family="sans-serif">sue</text></g><g class="relationship" transform="translate(124.53180966677684 -77.9680877651482) rotate(528.2717170215317)"><path class="outline" fill="#4C8EDA" stroke="none" d="M 25 0.5 L 77.96270273683483 0.5 L 77.96270273683483 -0.5 L 25 -0.5 Z M 96.86114023683483 0.5 L 149.82384297366966 0.5 L 149.82384297366966 3.5 L 156.82384297366966 0 L 149.82384297366966 -3.5 L 149.82384297366966 -0.5 L 96.86114023683483 -0.5 Z"/><text text-anchor="middle" pointer-events="none" font-size="8px" fill="#000000" x="87.41192148683483" y="3" transform="rotate(180 87.41192148683483 0)" font-family="sans-serif">sue</text></g><g class="relationship" transform="translate(124.53180966677684 -77.9680877651482) rotate(212.94096125786893)"><path class="outline" fill="#4C8EDA" stroke="none" d="M 25 0.5 L 29.781627837666086 0.5 L 29.781627837666086 -0.5 L 25 -0.5 Z M 48.680065337666086 0.5 L 53.46169317533217 0.5 L 53.46169317533217 3.5 L 60.46169317533217 0 L 53.46169317533217 -3.5 L 53.46169317533217 -0.5 L 48.680065337666086 -0.5 Z"/><text text-anchor="middle" pointer-events="none" font-size="8px" fill="#000000" x="39.230846587666086" y="3" transform="rotate(180 39.230846587666086 0)" font-family="sans-serif">sue</text></g><g class="relationship" transform="translate(124.53180966677684 -77.9680877651482) rotate(444.68366354372176)"><path class="outline" fill="#4C8EDA" stroke="none" d="M 25 0.5 L 94.38224205009419 0.5 L 94.38224205009419 -0.5 L 25 -0.5 Z M 113.28067955009419 0.5 L 182.66292160018838 0.5 L 182.66292160018838 3.5 L 189.66292160018838 0 L 182.66292160018838 -3.5 L 182.66292160018838 -0.5 L 113.28067955009419 -0.5 Z"/><text text-anchor="middle" pointer-events="none" font-size="8px" fill="#000000" x="103.83146080009419" y="3" font-family="sans-serif">sue</text></g><g class="relationship" transform="translate(124.53180966677684 -77.9680877651482) rotate(205.91301483929942)"><path class="outline" fill="#4C8EDA" stroke="none" d="M 25 0.5 L 87.61309816210424 0.5 L 87.61309816210424 -0.5 L 25 -0.5 Z M 106.51153566210424 0.5 L 169.12463382420847 0.5 L 169.12463382420847 3.5 L 176.12463382420847 0 L 169.12463382420847 -3.5 L 169.12463382420847 -0.5 L 106.51153566210424 -0.5 Z"/><text text-anchor="middle" pointer-events="none" font-size="8px" fill="#000000" x="97.06231691210424" y="3" transform="rotate(180 97.06231691210424 0)" font-family="sans-serif">sue</text></g><g class="relationship" transform="translate(124.53180966677684 -77.9680877651482) rotate(241.69273609138145)"><path class="outline" fill="#4C8EDA" stroke="none" d="M 25 0.5 L 90.14420922406183 0.5 L 90.14420922406183 -0.5 L 25 -0.5 Z M 109.04264672406183 0.5 L 174.18685594812365 0.5 L 174.18685594812365 3.5 L 181.18685594812365 0 L 174.18685594812365 -3.5 L 174.18685594812365 -0.5 L 109.04264672406183 -0.5 Z"/><text text-anchor="middle" pointer-events="none" font-size="8px" fill="#000000" x="99.59342797406183" y="3" transform="rotate(180 99.59342797406183 0)" font-family="sans-serif">sue</text></g><g class="relationship" transform="translate(124.53180966677684 -77.9680877651482) rotate(521.3194625603489)"><path class="outline" fill="#4C8EDA" stroke="none" d="M 25 0.5 L 41.61467680542779 0.5 L 41.61467680542779 -0.5 L 25 -0.5 Z M 60.51311430542779 0.5 L 77.12779111085558 0.5 L 77.12779111085558 3.5 L 84.12779111085558 0 L 77.12779111085558 -3.5 L 77.12779111085558 -0.5 L 60.51311430542779 -0.5 Z"/><text text-anchor="middle" pointer-events="none" font-size="8px" fill="#000000" x="51.06389555542779" y="3" transform="rotate(180 51.06389555542779 0)" font-family="sans-serif">sue</text></g><g class="relationship" transform="translate(124.53180966677684 -77.9680877651482) rotate(383.459669017748)"><path class="outline" fill="#4C8EDA" stroke="none" d="M 25 0.5 L 64.25775526811213 0.5 L 64.25775526811213 -0.5 L 25 -0.5 Z M 83.15619276811213 0.5 L 122.41394803622427 0.5 L 122.41394803622427 3.5 L 129.41394803622427 0 L 122.41394803622427 -3.5 L 122.41394803622427 -0.5 L 83.15619276811213 -0.5 Z"/><text text-anchor="middle" pointer-events="none" font-size="8px" fill="#000000" x="73.70697401811213" y="3" font-family="sans-serif">sue</text></g><g class="relationship" transform="translate(124.53180966677684 -77.9680877651482) rotate(505.00388745887113)"><path class="outline" fill="#4C8EDA" stroke="none" d="M 25 0.5 L 72.87511128788589 0.5 L 72.87511128788589 -0.5 L 25 -0.5 Z M 91.77354878788589 0.5 L 139.64866007577177 0.5 L 139.64866007577177 3.5 L 146.64866007577177 0 L 139.64866007577177 -3.5 L 139.64866007577177 -0.5 L 91.77354878788589 -0.5 Z"/><text text-anchor="middle" pointer-events="none" font-size="8px" fill="#000000" x="82.32433003788589" y="3" transform="rotate(180 82.32433003788589 0)" font-family="sans-serif">sue</text></g><g class="relationship" transform="translate(124.53180966677684 -77.9680877651482) rotate(430.3510570140208)"><path class="outline" fill="#4C8EDA" stroke="none" d="M 25 0.5 L 65.5469387316201 0.5 L 65.5469387316201 -0.5 L 25 -0.5 Z M 84.4453762316201 0.5 L 124.9923149632402 0.5 L 124.9923149632402 3.5 L 131.9923149632402 0 L 124.9923149632402 -3.5 L 124.9923149632402 -0.5 L 84.4453762316201 -0.5 Z"/><text text-anchor="middle" pointer-events="none" font-size="8px" fill="#000000" x="74.9961574816201" y="3" font-family="sans-serif">sue</text></g><g class="relationship" transform="translate(124.53180966677684 -77.9680877651482) rotate(483.0084269617924)"><path class="outline" fill="#4C8EDA" stroke="none" d="M 25 0.5 L 77.65034945600391 0.5 L 77.65034945600391 -0.5 L 25 -0.5 Z M 96.54878695600391 0.5 L 149.19913641200782 0.5 L 149.19913641200782 3.5 L 156.19913641200782 0 L 149.19913641200782 -3.5 L 149.19913641200782 -0.5 L 96.54878695600391 -0.5 Z"/><text text-anchor="middle" pointer-events="none" font-size="8px" fill="#000000" x="87.09956820600391" y="3" transform="rotate(180 87.09956820600391 0)" font-family="sans-serif">sue</text></g><g class="relationship" transform="translate(124.53180966677684 -77.9680877651482) rotate(422.74066224757934)"><path class="outline" fill="#4C8EDA" stroke="none" d="M 25 0.5 L 100.61602552242572 0.5 L 100.61602552242572 -0.5 L 25 -0.5 Z M 119.51446302242572 0.5 L 195.13048854485143 0.5 L 195.13048854485143 3.5 L 202.13048854485143 0 L 195.13048854485143 -3.5 L 195.13048854485143 -0.5 L 119.51446302242572 -0.5 Z"/><text text-anchor="middle" pointer-events="none" font-size="8px" fill="#000000" x="110.06524427242572" y="3" font-family="sans-serif">sue</text></g><g class="relationship" transform="translate(-449.8089882028447 262.22871191272804) rotate(210.12566577513576)"><path class="outline" fill="#4C8EDA" stroke="none" d="M 25 0.5 L 40.96435812857038 0.5 L 40.96435812857038 -0.5 L 25 -0.5 Z M 59.86279562857038 0.5 L 75.82715375714076 0.5 L 75.82715375714076 3.5 L 82.82715375714076 0 L 75.82715375714076 -3.5 L 75.82715375714076 -0.5 L 59.86279562857038 -0.5 Z"/><text text-anchor="middle" pointer-events="none" font-size="8px" fill="#000000" x="50.41357687857038" y="3" transform="rotate(180 50.41357687857038 0)" font-family="sans-serif">sue</text></g><g class="relationship" transform="translate(-449.8089882028447 262.22871191272804) rotate(462.24299348517695)"><path class="outline" fill="#4C8EDA" stroke="none" d="M 25 0.5 L 41.927876338711755 0.5 L 41.927876338711755 -0.5 L 25 -0.5 Z M 60.826313838711755 0.5 L 77.75419017742351 0.5 L 77.75419017742351 3.5 L 84.75419017742351 0 L 77.75419017742351 -3.5 L 77.75419017742351 -0.5 L 60.826313838711755 -0.5 Z"/><text text-anchor="middle" pointer-events="none" font-size="8px" fill="#000000" x="51.377095088711755" y="3" transform="rotate(180 51.377095088711755 0)" font-family="sans-serif">sue</text></g><g class="relationship" transform="translate(-449.8089882028447 262.22871191272804) rotate(406.3099880609783)"><path class="outline" fill="#4C8EDA" stroke="none" d="M 25 0.5 L 41.519023763180535 0.5 L 41.519023763180535 -0.5 L 25 -0.5 Z M 60.417461263180535 0.5 L 76.93648502636107 0.5 L 76.93648502636107 3.5 L 83.93648502636107 0 L 76.93648502636107 -3.5 L 76.93648502636107 -0.5 L 60.417461263180535 -0.5 Z"/><text text-anchor="middle" pointer-events="none" font-size="8px" fill="#000000" x="50.968242513180535" y="3" font-family="sans-serif">sue</text></g><g class="relationship" transform="translate(-449.8089882028447 262.22871191272804) rotate(264.85952792044833)"><path class="outline" fill="#4C8EDA" stroke="none" d="M 25 0.5 L 43.43024185158024 0.5 L 43.43024185158024 -0.5 L 25 -0.5 Z M 62.32867935158024 0.5 L 80.75892120316048 0.5 L 80.75892120316048 3.5 L 87.75892120316048 0 L 80.75892120316048 -3.5 L 80.75892120316048 -0.5 L 62.32867935158024 -0.5 Z"/><text text-anchor="middle" pointer-events="none" font-size="8px" fill="#000000" x="52.87946060158024" y="3" transform="rotate(180 52.87946060158024 0)" font-family="sans-serif">sue</text></g><g class="relationship" transform="translate(363.44462631463364 504.19591090591376) rotate(514.3076859613012)"><path class="outline" fill="#4C8EDA" stroke="none" d="M 25 0.5 L 44.92343438153783 0.5 L 44.92343438153783 -0.5 L 25 -0.5 Z M 63.82187188153783 0.5 L 83.74530626307566 0.5 L 83.74530626307566 3.5 L 90.74530626307566 0 L 83.74530626307566 -3.5 L 83.74530626307566 -0.5 L 63.82187188153783 -0.5 Z"/><text text-anchor="middle" pointer-events="none" font-size="8px" fill="#000000" x="54.37265313153783" y="3" transform="rotate(180 54.37265313153783 0)" font-family="sans-serif">sue</text></g><g class="relationship" transform="translate(363.44462631463364 504.19591090591376) rotate(464.6175434031379)"><path class="outline" fill="#4C8EDA" stroke="none" d="M 25 0.5 L 46.02809952921543 0.5 L 46.02809952921543 -0.5 L 25 -0.5 Z M 64.92653702921544 0.5 L 85.95463655843086 0.5 L 85.95463655843086 3.5 L 92.95463655843086 0 L 85.95463655843086 -3.5 L 85.95463655843086 -0.5 L 64.92653702921544 -0.5 Z"/><text text-anchor="middle" pointer-events="none" font-size="8px" fill="#000000" x="55.47731827921543" y="3" transform="rotate(180 55.47731827921543 0)" font-family="sans-serif">sue</text></g><g class="relationship" transform="translate(467.8126854111957 455.9933357607346) rotate(515.2100613083014)"><path class="outline" fill="#D9C8AE" stroke="none" d="M 24.018736134675446,-6.953439040707552 L 24.277555179777966,-5.987513214418485 A 121.58265378794373 121.58265378794373 0 0 1 24.939098910100675,-6.162779287463792 L 24.685720967899858,-7.130146652225534 A 122.58265378794373 122.58265378794373 0 0 0 24.018736134675446,-6.953439040707552 Z M 83.26225044332878,-8.002002748338114 L 83.03777505420295,-7.027522989863471 A 121.58265378794373 121.58265378794373 0 0 1 83.70424192230519,-6.872023095291135 L 83.01437096990276,-3.952420713282352 L 90.63162597239275,-5.748924603353594 L 84.62406985884175,-10.764826271302846 L 83.93419890643932,-7.845223889294063 A 122.58265378794373 122.58265378794373 0 0 0 83.26225044332878,-8.002002748338114"/><text text-anchor="middle" pointer-events="none" font-size="8px" fill="#000000" x="53.92857823778414" y="-7.616821136097073" transform="rotate(180 53.92857823778414 -10.616821136097073)" font-family="sans-serif">lawyer_conn…</text></g><g class="relationship" transform="translate(363.44462631463364 504.19591090591376) rotate(335.2100613083014)"><path class="outline" fill="#D9C8AE" stroke="none" d="M 24.018736134675446,-6.953439040707552 L 24.277555179777966,-5.987513214418485 A 121.58265378794373 121.58265378794373 0 0 1 24.939098910100675,-6.162779287463792 L 24.685720967899858,-7.130146652225534 A 122.58265378794373 122.58265378794373 0 0 0 24.018736134675446,-6.953439040707552 Z M 83.26225044332878,-8.002002748338114 L 83.03777505420295,-7.027522989863471 A 121.58265378794373 121.58265378794373 0 0 1 83.70424192230519,-6.872023095291135 L 83.01437096990276,-3.952420713282352 L 90.63162597239275,-5.748924603353594 L 84.62406985884175,-10.764826271302846 L 83.93419890643932,-7.845223889294063 A 122.58265378794373 122.58265378794373 0 0 0 83.26225044332878,-8.002002748338114"/><text text-anchor="middle" pointer-events="none" font-size="8px" fill="#000000" x="53.92857823778414" y="-7.616821136097073" font-family="sans-serif">lawyer_conn…</text></g></g><g class="layer nodes"><g class="node" transform="translate(-80.29138096216009,585.5571544979666)"><circle class="outline" cx="0" cy="0" r="25" fill="#569480" stroke="#447666" stroke-width="2px"/><text text-anchor="middle" pointer-events="none" font-family="sans-serif" dy="1.5625" font-size="25" fill="#FFFFFF"/><text text-anchor="middle" pointer-events="none" x="0" y="5" font-size="10px" fill="#FFFFFF" font-family="sans-serif"> plaintiff_0</text></g><g class="node" transform="translate(-56.665093920562626,700.6658036953062)"><circle class="outline" cx="0" cy="0" r="32.5" fill="#ECB5C9" stroke="#da7298" stroke-width="2px"/><text text-anchor="middle" pointer-events="none" font-family="sans-serif" dy="2.03125" font-size="32.5" fill="#2A2C34"/><text text-anchor="middle" pointer-events="none" x="0" y="5" font-size="10px" fill="#2A2C34" font-family="sans-serif"> 亳州广齐食…</text></g><g class="node" transform="translate(-187.2887788998815,633.8514088256421)"><circle class="outline" cx="0" cy="0" r="32.5" fill="#ECB5C9" stroke="#da7298" stroke-width="2px"/><text text-anchor="middle" pointer-events="none" font-family="sans-serif" dy="2.03125" font-size="32.5" fill="#2A2C34"/><text text-anchor="middle" pointer-events="none" x="0" y="5" font-size="10px" fill="#2A2C34" font-family="sans-serif"> 北京果唯美…</text></g><g class="node" transform="translate(30.903180432982236,616.7033642378437)"><circle class="outline" cx="0" cy="0" r="32.5" fill="#ECB5C9" stroke="#da7298" stroke-width="2px"/><text text-anchor="middle" pointer-events="none" font-family="sans-serif" dy="2.03125" font-size="32.5" fill="#2A2C34"/><text text-anchor="middle" pointer-events="none" x="0" y="5" font-size="10px" fill="#2A2C34" font-family="sans-serif"> 广东粤北行…</text></g><g class="node" transform="translate(-175.31694879309114,518.2249542143246)"><circle class="outline" cx="0" cy="0" r="32.5" fill="#ECB5C9" stroke="#da7298" stroke-width="2px"/><text text-anchor="middle" pointer-events="none" font-family="sans-serif" dy="2.03125" font-size="32.5" fill="#2A2C34"/><text text-anchor="middle" pointer-events="none" x="0" y="5" font-size="10px" fill="#2A2C34" font-family="sans-serif"> 浙江淘宝网…</text></g><g class="node" transform="translate(467.8126854111957,455.9933357607346)"><circle class="outline" cx="0" cy="0" r="25" fill="#569480" stroke="#447666" stroke-width="2px"/><text text-anchor="middle" pointer-events="none" font-family="sans-serif" dy="1.5625" font-size="25" fill="#FFFFFF"/><text text-anchor="middle" pointer-events="none" x="0" y="5" font-size="10px" fill="#FFFFFF" font-family="sans-serif"> plaintiff_1</text></g><g class="node" transform="translate(483.7809166535319,574.9894547768946)"><circle class="outline" cx="0" cy="0" r="32.5" fill="#ECB5C9" stroke="#da7298" stroke-width="2px"/><text text-anchor="middle" pointer-events="none" font-family="sans-serif" dy="2.03125" font-size="32.5" fill="#2A2C34"/><text text-anchor="middle" pointer-events="none" x="0" y="5" font-size="10px" fill="#2A2C34" font-family="sans-serif"> 王继兴</text></g><g class="node" transform="translate(590.1183128542725,410.77863435241665)"><circle class="outline" cx="0" cy="0" r="32.5" fill="#ECB5C9" stroke="#da7298" stroke-width="2px"/><text text-anchor="middle" pointer-events="none" font-family="sans-serif" dy="2.03125" font-size="32.5" fill="#2A2C34"/><text text-anchor="middle" pointer-events="none" x="0" y="5" font-size="10px" fill="#2A2C34" font-family="sans-serif"> 冯坤</text></g><g class="node" transform="translate(578.7548005116901,506.54764491910305)"><circle class="outline" cx="0" cy="0" r="32.5" fill="#ECB5C9" stroke="#da7298" stroke-width="2px"/><text text-anchor="middle" pointer-events="none" font-family="sans-serif" dy="2.03125" font-size="32.5" fill="#2A2C34"/><text text-anchor="middle" pointer-events="none" x="0" y="5" font-size="10px" fill="#2A2C34" font-family="sans-serif"> 赵万坤</text></g><g class="node" transform="translate(534.0452525330154,349.5482603538067)"><circle class="outline" cx="0" cy="0" r="32.5" fill="#ECB5C9" stroke="#da7298" stroke-width="2px"/><text text-anchor="middle" pointer-events="none" font-family="sans-serif" dy="2.03125" font-size="32.5" fill="#2A2C34"/><text text-anchor="middle" pointer-events="none" x="0" y="5" font-size="10px" fill="#2A2C34" font-family="sans-serif"> 马义全</text></g><g class="node" transform="translate(124.53180966677684,-77.9680877651482)"><circle class="outline" cx="0" cy="0" r="25" fill="#569480" stroke="#447666" stroke-width="2px"/><text text-anchor="middle" pointer-events="none" font-family="sans-serif" dy="1.5625" font-size="25" fill="#FFFFFF"/><text text-anchor="middle" pointer-events="none" x="0" y="5" font-size="10px" fill="#FFFFFF" font-family="sans-serif"> plaintiff_2</text></g><g class="node" transform="translate(52.47578345755545,154.8462826971983)"><circle class="outline" cx="0" cy="0" r="32.5" fill="#ECB5C9" stroke="#da7298" stroke-width="2px"/><text text-anchor="middle" pointer-events="none" font-family="sans-serif" dy="2.03125" font-size="32.5" fill="#2A2C34"/><text text-anchor="middle" pointer-events="none" x="0" y="5" font-size="10px" fill="#2A2C34" font-family="sans-serif"> 北京永辉超…</text></g><g class="node" transform="translate(-99.43453483137512,-103.52506603165637)"><circle class="outline" cx="0" cy="0" r="32.5" fill="#ECB5C9" stroke="#da7298" stroke-width="2px"/><text text-anchor="middle" pointer-events="none" font-family="sans-serif" dy="2.03125" font-size="32.5" fill="#2A2C34"/><text text-anchor="middle" pointer-events="none" x="0" y="5" font-size="10px" fill="#2A2C34" font-family="sans-serif"> 北京华联综…</text></g><g class="node" transform="translate(252.64759027235,58.62859704905628)"><circle class="outline" cx="0" cy="0" r="32.5" fill="#ECB5C9" stroke="#da7298" stroke-width="2px"/><text text-anchor="middle" pointer-events="none" font-family="sans-serif" dy="2.03125" font-size="32.5" fill="#2A2C34"/><text text-anchor="middle" pointer-events="none" x="0" y="5" font-size="10px" fill="#2A2C34" font-family="sans-serif"> 北京物美商…</text></g><g class="node" transform="translate(57.51797760165999,32.12740528837816)"><circle class="outline" cx="0" cy="0" r="32.5" fill="#ECB5C9" stroke="#da7298" stroke-width="2px"/><text text-anchor="middle" pointer-events="none" font-family="sans-serif" dy="2.03125" font-size="32.5" fill="#2A2C34"/><text text-anchor="middle" pointer-events="none" x="0" y="5" font-size="10px" fill="#2A2C34" font-family="sans-serif"> 北京欧尚超…</text></g><g class="node" transform="translate(325.184860897466,40.1904327026212)"><circle class="outline" cx="0" cy="0" r="32.5" fill="#ECB5C9" stroke="#da7298" stroke-width="2px"/><text text-anchor="middle" pointer-events="none" font-family="sans-serif" dy="2.03125" font-size="32.5" fill="#2A2C34"/><text text-anchor="middle" pointer-events="none" x="0" y="5" font-size="10px" fill="#2A2C34" font-family="sans-serif"> 北京永辉超…</text></g><g class="node" transform="translate(-97.16550082172803,25.978033645509782)"><circle class="outline" cx="0" cy="0" r="32.5" fill="#ECB5C9" stroke="#da7298" stroke-width="2px"/><text text-anchor="middle" pointer-events="none" font-family="sans-serif" dy="2.03125" font-size="32.5" fill="#2A2C34"/><text text-anchor="middle" pointer-events="none" x="0" y="5" font-size="10px" fill="#2A2C34" font-family="sans-serif"> 上海新欧尚…</text></g><g class="node" transform="translate(351.6479702629363,-29.90504514924827)"><circle class="outline" cx="0" cy="0" r="32.5" fill="#ECB5C9" stroke="#da7298" stroke-width="2px"/><text text-anchor="middle" pointer-events="none" font-family="sans-serif" dy="2.03125" font-size="32.5" fill="#2A2C34"/><text text-anchor="middle" pointer-events="none" x="0" y="5" font-size="10px" fill="#2A2C34" font-family="sans-serif"> 北京市家乐…</text></g><g class="node" transform="translate(91.49239741062038,90.91115216625931)"><circle class="outline" cx="0" cy="0" r="32.5" fill="#ECB5C9" stroke="#da7298" stroke-width="2px"/><text text-anchor="middle" pointer-events="none" font-family="sans-serif" dy="2.03125" font-size="32.5" fill="#2A2C34"/><text text-anchor="middle" pointer-events="none" x="0" y="5" font-size="10px" fill="#2A2C34" font-family="sans-serif"> 厦门金戋商…</text></g><g class="node" transform="translate(286.4601202600452,-199.31908196753702)"><circle class="outline" cx="0" cy="0" r="32.5" fill="#ECB5C9" stroke="#da7298" stroke-width="2px"/><text text-anchor="middle" pointer-events="none" font-family="sans-serif" dy="2.03125" font-size="32.5" fill="#2A2C34"/><text text-anchor="middle" pointer-events="none" x="0" y="5" font-size="10px" fill="#2A2C34" font-family="sans-serif"> 北京市家乐…</text></g><g class="node" transform="translate(79.19219044285799,-216.35305169620537)"><circle class="outline" cx="0" cy="0" r="32.5" fill="#ECB5C9" stroke="#da7298" stroke-width="2px"/><text text-anchor="middle" pointer-events="none" font-family="sans-serif" dy="2.03125" font-size="32.5" fill="#2A2C34"/><text text-anchor="middle" pointer-events="none" x="0" y="5" font-size="10px" fill="#2A2C34" font-family="sans-serif"> 北京华联综…</text></g><g class="node" transform="translate(8.011387710912137,-192.69796290743443)"><circle class="outline" cx="0" cy="0" r="32.5" fill="#ECB5C9" stroke="#da7298" stroke-width="2px"/><text text-anchor="middle" pointer-events="none" font-family="sans-serif" dy="2.03125" font-size="32.5" fill="#2A2C34"/><text text-anchor="middle" pointer-events="none" x="0" y="5" font-size="10px" fill="#2A2C34" font-family="sans-serif"> 特易购商业(…</text></g><g class="node" transform="translate(339.6945914575553,-146.6540364937547)"><circle class="outline" cx="0" cy="0" r="32.5" fill="#ECB5C9" stroke="#da7298" stroke-width="2px"/><text text-anchor="middle" pointer-events="none" font-family="sans-serif" dy="2.03125" font-size="32.5" fill="#2A2C34"/><text text-anchor="middle" pointer-events="none" x="0" y="5" font-size="10px" fill="#2A2C34" font-family="sans-serif"> 北京物美商…</text></g><g class="node" transform="translate(117.06644966480849,25.00665283791418)"><circle class="outline" cx="0" cy="0" r="32.5" fill="#ECB5C9" stroke="#da7298" stroke-width="2px"/><text text-anchor="middle" pointer-events="none" font-family="sans-serif" dy="2.03125" font-size="32.5" fill="#2A2C34"/><text text-anchor="middle" pointer-events="none" x="0" y="5" font-size="10px" fill="#2A2C34" font-family="sans-serif"> 幸福荣耀(北…</text></g><g class="node" transform="translate(211.50879383594457,-198.79341582369204)"><circle class="outline" cx="0" cy="0" r="32.5" fill="#ECB5C9" stroke="#da7298" stroke-width="2px"/><text text-anchor="middle" pointer-events="none" font-family="sans-serif" dy="2.03125" font-size="32.5" fill="#2A2C34"/><text text-anchor="middle" pointer-events="none" x="0" y="5" font-size="10px" fill="#2A2C34" font-family="sans-serif"> 北京家乐福…</text></g><g class="node" transform="translate(248.41212900953295,-263.86248573364685)"><circle class="outline" cx="0" cy="0" r="32.5" fill="#ECB5C9" stroke="#da7298" stroke-width="2px"/><text text-anchor="middle" pointer-events="none" font-family="sans-serif" dy="2.03125" font-size="32.5" fill="#2A2C34"/><text text-anchor="middle" pointer-events="none" x="0" y="5" font-size="10px" fill="#2A2C34" font-family="sans-serif"> 嘉善大润发…</text></g><g class="node" transform="translate(249.36431336193965,-134.26040546107575)"><circle class="outline" cx="0" cy="0" r="32.5" fill="#ECB5C9" stroke="#da7298" stroke-width="2px"/><text text-anchor="middle" pointer-events="none" font-family="sans-serif" dy="2.03125" font-size="32.5" fill="#2A2C34"/><text text-anchor="middle" pointer-events="none" x="0" y="5" font-size="10px" fill="#2A2C34" font-family="sans-serif"> 北京欧尚超…</text></g><g class="node" transform="translate(186.74332828926254,-306.50532711246655)"><circle class="outline" cx="0" cy="0" r="32.5" fill="#ECB5C9" stroke="#da7298" stroke-width="2px"/><text text-anchor="middle" pointer-events="none" font-family="sans-serif" dy="2.03125" font-size="32.5" fill="#2A2C34"/><text text-anchor="middle" pointer-events="none" x="0" y="5" font-size="10px" fill="#2A2C34" font-family="sans-serif"> 特易购商业(…</text></g><g class="node" transform="translate(299.44960016757756,-83.62941911488787)"><circle class="outline" cx="0" cy="0" r="32.5" fill="#ECB5C9" stroke="#da7298" stroke-width="2px"/><text text-anchor="middle" pointer-events="none" font-family="sans-serif" dy="2.03125" font-size="32.5" fill="#2A2C34"/><text text-anchor="middle" pointer-events="none" x="0" y="5" font-size="10px" fill="#2A2C34" font-family="sans-serif"> 北京华联综…</text></g><g class="node" transform="translate(93.78876172413567,-290.9686150777589)"><circle class="outline" cx="0" cy="0" r="32.5" fill="#ECB5C9" stroke="#da7298" stroke-width="2px"/><text text-anchor="middle" pointer-events="none" font-family="sans-serif" dy="2.03125" font-size="32.5" fill="#2A2C34"/><text text-anchor="middle" pointer-events="none" x="0" y="5" font-size="10px" fill="#2A2C34" font-family="sans-serif"> 北京创益佳…</text></g><g class="node" transform="translate(227.89879131417504,-78.24908555181615)"><circle class="outline" cx="0" cy="0" r="32.5" fill="#ECB5C9" stroke="#da7298" stroke-width="2px"/><text text-anchor="middle" pointer-events="none" font-family="sans-serif" dy="2.03125" font-size="32.5" fill="#2A2C34"/><text text-anchor="middle" pointer-events="none" x="0" y="5" font-size="10px" fill="#2A2C34" font-family="sans-serif"> 北京家乐福…</text></g><g class="node" transform="translate(143.5869410782228,-166.9154615918124)"><circle class="outline" cx="0" cy="0" r="32.5" fill="#ECB5C9" stroke="#da7298" stroke-width="2px"/><text text-anchor="middle" pointer-events="none" font-family="sans-serif" dy="2.03125" font-size="32.5" fill="#2A2C34"/><text text-anchor="middle" pointer-events="none" x="0" y="5" font-size="10px" fill="#2A2C34" font-family="sans-serif"> 北京欧尚超…</text></g><g class="node" transform="translate(-24.575555291446868,-104.89791565945588)"><circle class="outline" cx="0" cy="0" r="32.5" fill="#ECB5C9" stroke="#da7298" stroke-width="2px"/><text text-anchor="middle" pointer-events="none" font-family="sans-serif" dy="2.03125" font-size="32.5" fill="#2A2C34"/><text text-anchor="middle" pointer-events="none" x="0" y="5" font-size="10px" fill="#2A2C34" font-family="sans-serif"> 北京家乐福…</text></g><g class="node" transform="translate(-47.927925547283834,-242.40771819070227)"><circle class="outline" cx="0" cy="0" r="32.5" fill="#ECB5C9" stroke="#da7298" stroke-width="2px"/><text text-anchor="middle" pointer-events="none" font-family="sans-serif" dy="2.03125" font-size="32.5" fill="#2A2C34"/><text text-anchor="middle" pointer-events="none" x="0" y="5" font-size="10px" fill="#2A2C34" font-family="sans-serif"> 北京华联综…</text></g><g class="node" transform="translate(200.39829771643818,4.89802318212468)"><circle class="outline" cx="0" cy="0" r="32.5" fill="#ECB5C9" stroke="#da7298" stroke-width="2px"/><text text-anchor="middle" pointer-events="none" font-family="sans-serif" dy="2.03125" font-size="32.5" fill="#2A2C34"/><text text-anchor="middle" pointer-events="none" x="0" y="5" font-size="10px" fill="#2A2C34" font-family="sans-serif"> 北京欧尚超…</text></g><g class="node" transform="translate(149.83683893697503,-241.45964393124567)"><circle class="outline" cx="0" cy="0" r="32.5" fill="#ECB5C9" stroke="#da7298" stroke-width="2px"/><text text-anchor="middle" pointer-events="none" font-family="sans-serif" dy="2.03125" font-size="32.5" fill="#2A2C34"/><text text-anchor="middle" pointer-events="none" x="0" y="5" font-size="10px" fill="#2A2C34" font-family="sans-serif"> 北京物美商…</text></g><g class="node" transform="translate(-60.83944166411576,-39.484108002943536)"><circle class="outline" cx="0" cy="0" r="32.5" fill="#ECB5C9" stroke="#da7298" stroke-width="2px"/><text text-anchor="middle" pointer-events="none" font-family="sans-serif" dy="2.03125" font-size="32.5" fill="#2A2C34"/><text text-anchor="middle" pointer-events="none" x="0" y="5" font-size="10px" fill="#2A2C34" font-family="sans-serif"> 沃尔玛(北京…</text></g><g class="node" transform="translate(46.51544428257481,-128.51829182273121)"><circle class="outline" cx="0" cy="0" r="32.5" fill="#ECB5C9" stroke="#da7298" stroke-width="2px"/><text text-anchor="middle" pointer-events="none" font-family="sans-serif" dy="2.03125" font-size="32.5" fill="#2A2C34"/><text text-anchor="middle" pointer-events="none" x="0" y="5" font-size="10px" fill="#2A2C34" font-family="sans-serif"> 华润超级市…</text></g><g class="node" transform="translate(145.11620178523364,143.23916016096535)"><circle class="outline" cx="0" cy="0" r="32.5" fill="#ECB5C9" stroke="#da7298" stroke-width="2px"/><text text-anchor="middle" pointer-events="none" font-family="sans-serif" dy="2.03125" font-size="32.5" fill="#2A2C34"/><text text-anchor="middle" pointer-events="none" x="0" y="5" font-size="10px" fill="#2A2C34" font-family="sans-serif"> 天津瑞佳讯…</text></g><g class="node" transform="translate(-63.11739792883398,-169.13832812363594)"><circle class="outline" cx="0" cy="0" r="32.5" fill="#ECB5C9" stroke="#da7298" stroke-width="2px"/><text text-anchor="middle" pointer-events="none" font-family="sans-serif" dy="2.03125" font-size="32.5" fill="#2A2C34"/><text text-anchor="middle" pointer-events="none" x="0" y="5" font-size="10px" fill="#2A2C34" font-family="sans-serif"> 北京京东叁…</text></g><g class="node" transform="translate(23.20153860749833,-266.1016801192179)"><circle class="outline" cx="0" cy="0" r="32.5" fill="#ECB5C9" stroke="#da7298" stroke-width="2px"/><text text-anchor="middle" pointer-events="none" font-family="sans-serif" dy="2.03125" font-size="32.5" fill="#2A2C34"/><text text-anchor="middle" pointer-events="none" x="0" y="5" font-size="10px" fill="#2A2C34" font-family="sans-serif"> 华润超级市…</text></g><g class="node" transform="translate(14.048071968788687,-40.613230468144415)"><circle class="outline" cx="0" cy="0" r="32.5" fill="#ECB5C9" stroke="#da7298" stroke-width="2px"/><text text-anchor="middle" pointer-events="none" font-family="sans-serif" dy="2.03125" font-size="32.5" fill="#2A2C34"/><text text-anchor="middle" pointer-events="none" x="0" y="5" font-size="10px" fill="#2A2C34" font-family="sans-serif"> 北京玉蜒桥…</text></g><g class="node" transform="translate(273.0620365723404,-13.509587440839224)"><circle class="outline" cx="0" cy="0" r="32.5" fill="#ECB5C9" stroke="#da7298" stroke-width="2px"/><text text-anchor="middle" pointer-events="none" font-family="sans-serif" dy="2.03125" font-size="32.5" fill="#2A2C34"/><text text-anchor="middle" pointer-events="none" x="0" y="5" font-size="10px" fill="#2A2C34" font-family="sans-serif"> 北京大星发…</text></g><g class="node" transform="translate(-22.225152978232998,24.777405187854946)"><circle class="outline" cx="0" cy="0" r="32.5" fill="#ECB5C9" stroke="#da7298" stroke-width="2px"/><text text-anchor="middle" pointer-events="none" font-family="sans-serif" dy="2.03125" font-size="32.5" fill="#2A2C34"/><text text-anchor="middle" pointer-events="none" x="0" y="5" font-size="10px" fill="#2A2C34" font-family="sans-serif"> 北京家乐福…</text></g><g class="node" transform="translate(179.8433651701501,76.94593196761542)"><circle class="outline" cx="0" cy="0" r="32.5" fill="#ECB5C9" stroke="#da7298" stroke-width="2px"/><text text-anchor="middle" pointer-events="none" font-family="sans-serif" dy="2.03125" font-size="32.5" fill="#2A2C34"/><text text-anchor="middle" pointer-events="none" x="0" y="5" font-size="10px" fill="#2A2C34" font-family="sans-serif"> 特易购商业(…</text></g><g class="node" transform="translate(21.735619142022713,80.27320677024157)"><circle class="outline" cx="0" cy="0" r="32.5" fill="#ECB5C9" stroke="#da7298" stroke-width="2px"/><text text-anchor="middle" pointer-events="none" font-family="sans-serif" dy="2.03125" font-size="32.5" fill="#2A2C34"/><text text-anchor="middle" pointer-events="none" x="0" y="5" font-size="10px" fill="#2A2C34" font-family="sans-serif"> 北京永辉超…</text></g><g class="node" transform="translate(231.99698357756125,130.60492715078124)"><circle class="outline" cx="0" cy="0" r="32.5" fill="#ECB5C9" stroke="#da7298" stroke-width="2px"/><text text-anchor="middle" pointer-events="none" font-family="sans-serif" dy="2.03125" font-size="32.5" fill="#2A2C34"/><text text-anchor="middle" pointer-events="none" x="0" y="5" font-size="10px" fill="#2A2C34" font-family="sans-serif"> 北京易初莲…</text></g><g class="node" transform="translate(-449.8089882028447,262.22871191272804)"><circle class="outline" cx="0" cy="0" r="25" fill="#569480" stroke="#447666" stroke-width="2px"/><text text-anchor="middle" pointer-events="none" font-family="sans-serif" dy="1.5625" font-size="25" fill="#FFFFFF"/><text text-anchor="middle" pointer-events="none" x="0" y="5" font-size="10px" fill="#FFFFFF" font-family="sans-serif"> plaintiff_3</text></g><g class="node" transform="translate(-549.5585205193391,204.34621718104063)"><circle class="outline" cx="0" cy="0" r="32.5" fill="#ECB5C9" stroke="#da7298" stroke-width="2px"/><text text-anchor="middle" pointer-events="none" font-family="sans-serif" dy="2.03125" font-size="32.5" fill="#2A2C34"/><text text-anchor="middle" pointer-events="none" x="0" y="5" font-size="10px" fill="#2A2C34" font-family="sans-serif"> 大连御洋食…</text></g><g class="node" transform="translate(-474.6736969799672,376.81619539845735)"><circle class="outline" cx="0" cy="0" r="32.5" fill="#ECB5C9" stroke="#da7298" stroke-width="2px"/><text text-anchor="middle" pointer-events="none" font-family="sans-serif" dy="2.03125" font-size="32.5" fill="#2A2C34"/><text text-anchor="middle" pointer-events="none" x="0" y="5" font-size="10px" fill="#2A2C34" font-family="sans-serif"> 重庆和平药…</text></g><g class="node" transform="translate(-369.3797445103534,346.42248724290226)"><circle class="outline" cx="0" cy="0" r="32.5" fill="#ECB5C9" stroke="#da7298" stroke-width="2px"/><text text-anchor="middle" pointer-events="none" font-family="sans-serif" dy="2.03125" font-size="32.5" fill="#2A2C34"/><text text-anchor="middle" pointer-events="none" x="0" y="5" font-size="10px" fill="#2A2C34" font-family="sans-serif"> 重庆永辉超…</text></g><g class="node" transform="translate(-460.5839288894151,142.4534691363143)"><circle class="outline" cx="0" cy="0" r="32.5" fill="#ECB5C9" stroke="#da7298" stroke-width="2px"/><text text-anchor="middle" pointer-events="none" font-family="sans-serif" dy="2.03125" font-size="32.5" fill="#2A2C34"/><text text-anchor="middle" pointer-events="none" x="0" y="5" font-size="10px" fill="#2A2C34" font-family="sans-serif"> 重庆和平药…</text></g><g class="node" transform="translate(363.44462631463364,504.19591090591376)"><circle class="outline" cx="0" cy="0" r="25" fill="#569480" stroke="#447666" stroke-width="2px"/><text text-anchor="middle" pointer-events="none" font-family="sans-serif" dy="1.5625" font-size="25" fill="#FFFFFF"/><text text-anchor="middle" pointer-events="none" x="0" y="5" font-size="10px" fill="#FFFFFF" font-family="sans-serif"> plaintiff_4</text></g><g class="node" transform="translate(252.38394426311987,557.6274598085226)"><circle class="outline" cx="0" cy="0" r="32.5" fill="#ECB5C9" stroke="#da7298" stroke-width="2px"/><text text-anchor="middle" pointer-events="none" font-family="sans-serif" dy="2.03125" font-size="32.5" fill="#2A2C34"/><text text-anchor="middle" pointer-events="none" x="0" y="5" font-size="10px" fill="#2A2C34" font-family="sans-serif"> 王玉洁</text></g><g class="node" transform="translate(331.784185484888,625.5898247586031)"><circle class="outline" cx="0" cy="0" r="32.5" fill="#ECB5C9" stroke="#da7298" stroke-width="2px"/><text text-anchor="middle" pointer-events="none" font-family="sans-serif" dy="2.03125" font-size="32.5" fill="#2A2C34"/><text text-anchor="middle" pointer-events="none" x="0" y="5" font-size="10px" fill="#2A2C34" font-family="sans-serif"> 古春林</text></g></g></svg>