<svg xmlns="http://www.w3.org/2000/svg" width="762.614990234375" height="327.11090087890625" viewBox="-154.16220092773438 -84.19894409179688 762.614990234375 327.11090087890625"><title>Neo4j Graph Visualization</title><desc>Created using Neo4j (http://www.neo4j.com/)</desc><g class="layer relationships"><g class="relationship" transform="translate(445.18245137712677 5.932463019248246) rotate(402.9685938789572)"><path class="outline" fill="#A5ABB6" stroke="none" d="M 25 0.5 L 42.80465676034738 0.5 L 42.80465676034738 -0.5 L 25 -0.5 Z M 61.70309426034738 0.5 L 79.50775102069476 0.5 L 79.50775102069476 3.5 L 86.50775102069476 0 L 79.50775102069476 -3.5 L 79.50775102069476 -0.5 L 61.70309426034738 -0.5 Z"/><text text-anchor="middle" pointer-events="none" font-size="8px" fill="#000000" x="52.25387551034738" y="3" font-family="sans-serif">sue</text></g><g class="relationship" transform="translate(455.43283935625084 136.4191739131818) rotate(265.50835211145716)"><path class="outline" fill="#A5ABB6" stroke="none" d="M 25 0.5 L 46.34083511217129 0.5 L 46.34083511217129 -0.5 L 25 -0.5 Z M 77.54786636217129 0.5 L 98.88870147434258 0.5 L 98.88870147434258 3.5 L 105.88870147434258 0 L 98.88870147434258 -3.5 L 98.88870147434258 -0.5 L 77.54786636217129 -0.5 Z"/><text text-anchor="middle" pointer-events="none" font-size="8px" fill="#000000" x="61.94435073717129" y="3" transform="rotate(180 61.94435073717129 0)" font-family="sans-serif">plaintiff</text></g><g class="relationship" transform="translate(455.43283935625084 136.4191739131818) rotate(322.63165929695174)"><path class="outline" fill="#A5ABB6" stroke="none" d="M 25 0.5 L 26.598694876823437 0.5 L 26.598694876823437 -0.5 L 25 -0.5 Z M 56.16900737682344 0.5 L 57.767702253646874 0.5 L 57.767702253646874 3.5 L 64.76770225364687 0 L 57.767702253646874 -3.5 L 57.767702253646874 -0.5 L 56.16900737682344 -0.5 Z"/><text text-anchor="middle" pointer-events="none" font-size="8px" fill="#000000" x="41.38385112682344" y="3" font-family="sans-serif">defe…</text></g><g class="relationship" transform="translate(455.43283935625084 136.4191739131818) rotate(191.5196034918116)"><path class="outline" fill="#A5ABB6" stroke="none" d="M 25 0.5 L 39.101318259172196 0.5 L 39.101318259172196 -0.5 L 25 -0.5 Z M 64.67553700917219 0.5 L 78.77685526834439 0.5 L 78.77685526834439 3.5 L 85.77685526834439 0 L 78.77685526834439 -3.5 L 78.77685526834439 -0.5 L 64.67553700917219 -0.5 Z"/><text text-anchor="middle" pointer-events="none" font-size="8px" fill="#000000" x="51.888427634172196" y="3" transform="rotate(180 51.888427634172196 0)" font-family="sans-serif">judge</text></g><g class="relationship" transform="translate(455.43283935625084 136.4191739131818) rotate(231.99481099640553)"><path class="outline" fill="#A5ABB6" stroke="none" d="M 25 0.5 L 65.72028748936137 0.5 L 65.72028748936137 -0.5 L 25 -0.5 Z M 93.06794373936137 0.5 L 133.78823122872274 0.5 L 133.78823122872274 3.5 L 140.78823122872274 0 L 133.78823122872274 -3.5 L 133.78823122872274 -0.5 L 93.06794373936137 -0.5 Z"/><text text-anchor="middle" pointer-events="none" font-size="8px" fill="#000000" x="79.39411561436137" y="3" transform="rotate(180 79.39411561436137 0)" font-family="sans-serif">locate</text></g><g class="relationship" transform="translate(346.88742493581776 114.29668148036222) rotate(273.40915752288396)"><path class="outline" fill="#A5ABB6" stroke="none" d="M 25 0.5 L 36.07052041678726 0.5 L 36.07052041678726 -0.5 L 25 -0.5 Z M 65.63302041678726 0.5 L 76.70354083357452 0.5 L 76.70354083357452 3.5 L 83.70354083357452 0 L 76.70354083357452 -3.5 L 76.70354083357452 -0.5 L 65.63302041678726 -0.5 Z"/><text text-anchor="middle" pointer-events="none" font-size="8px" fill="#000000" x="50.85177041678726" y="3" font-family="sans-serif">workIn</text></g><g class="relationship" transform="translate(579.4528420644256 10.511554918024189) rotate(486.4096534116927)"><path class="outline" fill="#A5ABB6" stroke="none" d="M 25 0.5 L 31.425065631142026 0.5 L 31.425065631142026 -0.5 L 25 -0.5 Z M 50.323503131142026 0.5 L 56.74856876228405 0.5 L 56.74856876228405 3.5 L 63.74856876228405 0 L 56.74856876228405 -3.5 L 56.74856876228405 -0.5 L 50.323503131142026 -0.5 Z"/><text text-anchor="middle" pointer-events="none" font-size="8px" fill="#000000" x="40.874284381142026" y="3" transform="rotate(180 40.874284381142026 0)" font-family="sans-serif">sue</text></g><g class="relationship" transform="translate(579.0890201133066 151.04879472279728) rotate(232.87702290905946)"><path class="outline" fill="#A5ABB6" stroke="none" d="M 25 0.5 L 25.05442999150494 0.5 L 25.05442999150494 -0.5 L 25 -0.5 Z M 54.62474249150494 0.5 L 54.67917248300988 0.5 L 54.67917248300988 3.5 L 61.67917248300988 0 L 54.67917248300988 -3.5 L 54.67917248300988 -0.5 L 54.62474249150494 -0.5 Z"/><text text-anchor="middle" pointer-events="none" font-size="8px" fill="#000000" x="39.83958624150494" y="3" transform="rotate(180 39.83958624150494 0)" font-family="sans-serif">defe…</text></g><g class="relationship" transform="translate(579.0890201133066 151.04879472279728) rotate(270.14832663395646)"><path class="outline" fill="#A5ABB6" stroke="none" d="M 25 0.5 L 51.16533974200526 0.5 L 51.16533974200526 -0.5 L 25 -0.5 Z M 82.37237099200526 0.5 L 108.53771073401052 0.5 L 108.53771073401052 3.5 L 115.53771073401052 0 L 108.53771073401052 -3.5 L 108.53771073401052 -0.5 L 82.37237099200526 -0.5 Z"/><text text-anchor="middle" pointer-events="none" font-size="8px" fill="#000000" x="66.76885536700526" y="3" font-family="sans-serif">plaintiff</text></g><g class="relationship" transform="translate(248.61068575409482 23.349130263013564) rotate(402.7818824023966)"><path class="outline" fill="#A5ABB6" stroke="none" d="M 25 0.5 L 50.66394464326146 0.5 L 50.66394464326146 -0.5 L 25 -0.5 Z M 76.23816339326146 0.5 L 101.90210803652292 0.5 L 101.90210803652292 3.5 L 108.90210803652292 0 L 101.90210803652292 -3.5 L 101.90210803652292 -0.5 L 76.23816339326146 -0.5 Z"/><text text-anchor="middle" pointer-events="none" font-size="8px" fill="#000000" x="63.45105401826146" y="3" font-family="sans-serif">judge</text></g><g class="relationship" transform="translate(248.61068575409482 23.349130263013564) rotate(480.6962870240632)"><path class="outline" fill="#A5ABB6" stroke="none" d="M 25 0.5 L 67.59213661934497 0.5 L 67.59213661934497 -0.5 L 25 -0.5 Z M 98.79916786934497 0.5 L 141.39130448868994 0.5 L 141.39130448868994 3.5 L 148.39130448868994 0 L 141.39130448868994 -3.5 L 141.39130448868994 -0.5 L 98.79916786934497 -0.5 Z"/><text text-anchor="middle" pointer-events="none" font-size="8px" fill="#000000" x="83.19565224434497" y="3" transform="rotate(180 83.19565224434497 0)" font-family="sans-serif">plaintiff</text></g><g class="relationship" transform="translate(248.61068575409482 23.349130263013564) rotate(531.8937303143096)"><path class="outline" fill="#A5ABB6" stroke="none" d="M 25 0.5 L 51.22563198258638 0.5 L 51.22563198258638 -0.5 L 25 -0.5 Z M 92.81547573258638 0.5 L 119.04110771517276 0.5 L 119.04110771517276 3.5 L 126.04110771517276 0 L 119.04110771517276 -3.5 L 119.04110771517276 -0.5 L 92.81547573258638 -0.5 Z"/><text text-anchor="middle" pointer-events="none" font-size="8px" fill="#000000" x="72.02055385758638" y="3" transform="rotate(180 72.02055385758638 0)" font-family="sans-serif">defendant</text></g><g class="relationship" transform="translate(248.61068575409482 23.349130263013564) rotate(493.68934165102775)"><path class="outline" fill="#A5ABB6" stroke="none" d="M 25 0.5 L 113.71015895459124 0.5 L 113.71015895459124 -0.5 L 25 -0.5 Z M 142.82734645459124 0.5 L 231.53750540918247 0.5 L 231.53750540918247 3.5 L 238.53750540918247 0 L 231.53750540918247 -3.5 L 231.53750540918247 -0.5 L 142.82734645459124 -0.5 Z"/><text text-anchor="middle" pointer-events="none" font-size="8px" fill="#000000" x="128.26875270459124" y="3" transform="rotate(180 128.26875270459124 0)" font-family="sans-serif">lawyer</text></g><g class="relationship" transform="translate(248.61068575409482 23.349130263013564) rotate(454.01700959356754)"><path class="outline" fill="#A5ABB6" stroke="none" d="M 25 0.5 L 43.87688527527408 0.5 L 43.87688527527408 -0.5 L 25 -0.5 Z M 72.99407277527408 0.5 L 91.87095805054815 0.5 L 91.87095805054815 3.5 L 98.87095805054815 0 L 91.87095805054815 -3.5 L 91.87095805054815 -0.5 L 72.99407277527408 -0.5 Z"/><text text-anchor="middle" pointer-events="none" font-size="8px" fill="#000000" x="58.43547902527408" y="3" transform="rotate(180 58.43547902527408 0)" font-family="sans-serif">lawyer</text></g><g class="relationship" transform="translate(248.61068575409482 23.349130263013564) rotate(350.4808413530129)"><path class="outline" fill="#A5ABB6" stroke="none" d="M 25 0.5 L 35.92781009236919 0.5 L 35.92781009236919 -0.5 L 25 -0.5 Z M 63.27546634236919 0.5 L 74.20327643473838 0.5 L 74.20327643473838 3.5 L 81.20327643473838 0 L 74.20327643473838 -3.5 L 74.20327643473838 -0.5 L 63.27546634236919 -0.5 Z"/><text text-anchor="middle" pointer-events="none" font-size="8px" fill="#000000" x="49.60163821736919" y="3" font-family="sans-serif">locate</text></g><g class="relationship" transform="translate(160.09664504153574 172.44577364919118) rotate(342.26685073309875)"><path class="outline" fill="#A5ABB6" stroke="none" d="M 25 0.5 L 25.84904766082611 0.5 L 25.84904766082611 -0.5 L 25 -0.5 Z M 50.97014141082611 0.5 L 51.81918907165222 0.5 L 51.81918907165222 3.5 L 58.81918907165222 0 L 51.81918907165222 -3.5 L 51.81918907165222 -0.5 L 50.97014141082611 -0.5 Z"/><text text-anchor="middle" pointer-events="none" font-size="8px" fill="#000000" x="38.40959453582611" y="3" font-family="sans-serif">aut…</text></g><g class="relationship" transform="translate(160.09664504153574 172.44577364919118) rotate(516.0886966529984)"><path class="outline" fill="#A5ABB6" stroke="none" d="M 25 0.5 L 28.19707636116818 0.5 L 28.19707636116818 -0.5 L 25 -0.5 Z M 67.10723261116817 0.5 L 70.30430897233636 0.5 L 70.30430897233636 3.5 L 77.30430897233636 0 L 70.30430897233636 -3.5 L 70.30430897233636 -0.5 L 67.10723261116817 -0.5 Z"/><text text-anchor="middle" pointer-events="none" font-size="8px" fill="#000000" x="47.65215448616818" y="3" transform="rotate(180 47.65215448616818 0)" font-family="sans-serif">authorize</text></g><g class="relationship" transform="translate(160.09664504153574 172.44577364919118) rotate(244.47765591415458)"><path class="outline" fill="#A5ABB6" stroke="none" d="M 25 0.5 L 57.85970670884865 0.5 L 57.85970670884865 -0.5 L 25 -0.5 Z M 76.75814420884865 0.5 L 109.6178509176973 0.5 L 109.6178509176973 3.5 L 116.6178509176973 0 L 109.6178509176973 -3.5 L 109.6178509176973 -0.5 L 76.75814420884865 -0.5 Z"/><text text-anchor="middle" pointer-events="none" font-size="8px" fill="#000000" x="67.30892545884865" y="3" transform="rotate(180 67.30892545884865 0)" font-family="sans-serif">sue</text></g><g class="relationship" transform="translate(-125.16221029867457 -44.17925049482138) rotate(381.60957396779827)"><path class="outline" fill="#A5ABB6" stroke="none" d="M 25 0.5 L 107.64739709547624 0.5 L 107.64739709547624 -0.5 L 25 -0.5 Z M 126.54583459547624 0.5 L 209.19323169095247 0.5 L 209.19323169095247 3.5 L 216.19323169095247 0 L 209.19323169095247 -3.5 L 209.19323169095247 -0.5 L 126.54583459547624 -0.5 Z"/><text text-anchor="middle" pointer-events="none" font-size="8px" fill="#000000" x="117.09661584547624" y="3" font-family="sans-serif">sue</text></g><g class="relationship" transform="translate(80.35616296462729 134.8955130359273) rotate(281.72014300093764)"><path class="outline" fill="#A5ABB6" stroke="none" d="M 25 0.5 L 33.13565452963203 0.5 L 33.13565452963203 -0.5 L 25 -0.5 Z M 52.03409202963203 0.5 L 60.169746559264055 0.5 L 60.169746559264055 3.5 L 67.16974655926406 0 L 60.169746559264055 -3.5 L 60.169746559264055 -0.5 L 52.03409202963203 -0.5 Z"/><text text-anchor="middle" pointer-events="none" font-size="8px" fill="#000000" x="42.58487327963203" y="3" font-family="sans-serif">sue</text></g><g class="relationship" transform="translate(-84.38470508903538 94.11550865221182) rotate(344.90992744607786)"><path class="outline" fill="#A5ABB6" stroke="none" d="M 25 0.5 L 82.05858924947316 0.5 L 82.05858924947316 -0.5 L 25 -0.5 Z M 100.95702674947316 0.5 L 158.01561599894632 0.5 L 158.01561599894632 3.5 L 165.01561599894632 0 L 158.01561599894632 -3.5 L 158.01561599894632 -0.5 L 100.95702674947316 -0.5 Z"/><text text-anchor="middle" pointer-events="none" font-size="8px" fill="#000000" x="91.50780799947316" y="3" font-family="sans-serif">sue</text></g><g class="relationship" transform="translate(70.51757892128975 -55.19894844056875) rotate(434.03675508362016)"><path class="outline" fill="#A5ABB6" stroke="none" d="M 25 0.5 L 38.976275489232734 0.5 L 38.976275489232734 -0.5 L 25 -0.5 Z M 57.874712989232734 0.5 L 71.85098847846547 0.5 L 71.85098847846547 3.5 L 78.85098847846547 0 L 71.85098847846547 -3.5 L 71.85098847846547 -0.5 L 57.874712989232734 -0.5 Z"/><text text-anchor="middle" pointer-events="none" font-size="8px" fill="#000000" x="48.425494239232734" y="3" font-family="sans-serif">sue</text></g><g class="relationship" transform="translate(-44.56161386644527 161.39024083905989) rotate(320.89771409368603)"><path class="outline" fill="#A5ABB6" stroke="none" d="M 25 0.5 L 68.2543223552047 0.5 L 68.2543223552047 -0.5 L 25 -0.5 Z M 109.8441661052047 0.5 L 153.0984884604094 0.5 L 153.0984884604094 3.5 L 160.0984884604094 0 L 153.0984884604094 -3.5 L 153.0984884604094 -0.5 L 109.8441661052047 -0.5 Z"/><text text-anchor="middle" pointer-events="none" font-size="8px" fill="#000000" x="89.0492442302047" y="3" font-family="sans-serif">defendant</text></g><g class="relationship" transform="translate(-24.989988112473018 -41.89875415631315) rotate(394.8983157263746)"><path class="outline" fill="#A5ABB6" stroke="none" d="M 25 0.5 L 51.34118475148122 0.5 L 51.34118475148122 -0.5 L 25 -0.5 Z M 92.93102850148122 0.5 L 119.27221325296244 0.5 L 119.27221325296244 3.5 L 126.27221325296244 0 L 119.27221325296244 -3.5 L 119.27221325296244 -0.5 L 92.93102850148122 -0.5 Z"/><text text-anchor="middle" pointer-events="none" font-size="8px" fill="#000000" x="72.13610662648122" y="3" font-family="sans-serif">defendant</text></g><g class="relationship" transform="translate(180.8167551098029 -40.31424704868944) rotate(493.8921621303354)"><path class="outline" fill="#A5ABB6" stroke="none" d="M 25 0.5 L 34.65331560156447 0.5 L 34.65331560156447 -0.5 L 25 -0.5 Z M 76.24315935156447 0.5 L 85.89647495312894 0.5 L 85.89647495312894 3.5 L 92.89647495312894 0 L 85.89647495312894 -3.5 L 85.89647495312894 -0.5 L 76.24315935156447 -0.5 Z"/><text text-anchor="middle" pointer-events="none" font-size="8px" fill="#000000" x="55.44823747656447" y="3" transform="rotate(180 55.44823747656447 0)" font-family="sans-serif">defendant</text></g><g class="relationship" transform="translate(-112.08454606266577 15.23176562054364) rotate(367.9304193973678)"><path class="outline" fill="#A5ABB6" stroke="none" d="M 25 0.5 L 82.3062197398226 0.5 L 82.3062197398226 -0.5 L 25 -0.5 Z M 123.8960634898226 0.5 L 181.2022832296452 0.5 L 181.2022832296452 3.5 L 188.2022832296452 0 L 181.2022832296452 -3.5 L 181.2022832296452 -0.5 L 123.8960634898226 -0.5 Z"/><text text-anchor="middle" pointer-events="none" font-size="8px" fill="#000000" x="103.1011416148226" y="3" font-family="sans-serif">defendant</text></g><g class="relationship" transform="translate(-44.56161386644527 161.39024083905989) rotate(348.02517660784724)"><path class="outline" fill="#A5ABB6" stroke="none" d="M 25 0.5 L 44.744784214893414 0.5 L 44.744784214893414 -0.5 L 25 -0.5 Z M 75.95181546489341 0.5 L 95.69659967978683 0.5 L 95.69659967978683 3.5 L 102.69659967978683 0 L 95.69659967978683 -3.5 L 95.69659967978683 -0.5 L 75.95181546489341 -0.5 Z"/><text text-anchor="middle" pointer-events="none" font-size="8px" fill="#000000" x="60.348299839893414" y="3" font-family="sans-serif">plaintiff</text></g><g class="relationship" transform="translate(-24.989988112473018 -41.89875415631315) rotate(181.3041564444253)"><path class="outline" fill="#A5ABB6" stroke="none" d="M 25 0.5 L 30.99557309243996 0.5 L 30.99557309243996 -0.5 L 25 -0.5 Z M 62.20260434243996 0.5 L 68.19817743487992 0.5 L 68.19817743487992 3.5 L 75.19817743487992 0 L 68.19817743487992 -3.5 L 68.19817743487992 -0.5 L 62.20260434243996 -0.5 Z"/><text text-anchor="middle" pointer-events="none" font-size="8px" fill="#000000" x="46.59908871743996" y="3" transform="rotate(180 46.59908871743996 0)" font-family="sans-serif">plaintiff</text></g><g class="relationship" transform="translate(180.8167551098029 -40.31424704868944) rotate(187.6855462680041)"><path class="outline" fill="#A5ABB6" stroke="none" d="M 25 0.5 L 36.545973598599524 0.5 L 36.545973598599524 -0.5 L 25 -0.5 Z M 67.75300484859952 0.5 L 79.29897844719905 0.5 L 79.29897844719905 3.5 L 86.29897844719905 0 L 79.29897844719905 -3.5 L 79.29897844719905 -0.5 L 67.75300484859952 -0.5 Z"/><text text-anchor="middle" pointer-events="none" font-size="8px" fill="#000000" x="52.149489223599524" y="3" transform="rotate(180 52.149489223599524 0)" font-family="sans-serif">plaintiff</text></g><g class="relationship" transform="translate(-112.08454606266577 15.23176562054364) rotate(430.65139525446386)"><path class="outline" fill="#A5ABB6" stroke="none" d="M 25 0.5 L 25.07632646909719 0.5 L 25.07632646909719 -0.5 L 25 -0.5 Z M 51.52945146909719 0.5 L 51.60577793819438 0.5 L 51.60577793819438 3.5 L 58.60577793819438 0 L 51.60577793819438 -3.5 L 51.60577793819438 -0.5 L 51.52945146909719 -0.5 Z"/><text text-anchor="middle" pointer-events="none" font-size="8px" fill="#000000" x="38.30288896909719" y="3" font-family="sans-serif">plai…</text></g></g><g class="layer nodes"><g class="node" transform="translate(445.18245137712677,5.932463019248246)"><circle class="outline" cx="0" cy="0" r="25" fill="#8DCC93" stroke="#5db665" stroke-width="2px"/><text text-anchor="middle" pointer-events="none" font-family="sans-serif" dy="1.5625" font-size="25" fill="#2A2C34"/><text text-anchor="middle" pointer-events="none" x="0" y="5" font-size="10px" fill="#2A2C34" font-family="sans-serif"> plaintiff_7</text></g><g class="node" transform="translate(526.7757306157478,81.9358532119342)"><circle class="outline" cx="0" cy="0" r="25" fill="#ECB5C9" stroke="#da7298" stroke-width="2px"/><text text-anchor="middle" pointer-events="none" font-family="sans-serif" dy="1.5625" font-size="25" fill="#2A2C34"/><text text-anchor="middle" pointer-events="none" x="0" y="5" font-size="10px" fill="#2A2C34" font-family="sans-serif"> defenda…</text></g><g class="node" transform="translate(455.43283935625084,136.4191739131818)"><circle class="outline" cx="0" cy="0" r="25" fill="#569480" stroke="#447666" stroke-width="2px"/><text text-anchor="middle" pointer-events="none" font-family="sans-serif" dy="1.5625" font-size="25" fill="#FFFFFF"/><text text-anchor="middle" pointer-events="none" x="0" y="5" font-size="10px" fill="#FFFFFF" font-family="sans-serif"> 57acf1d…</text></g><g class="node" transform="translate(346.88742493581776,114.29668148036222)"><circle class="outline" cx="0" cy="0" r="25" fill="#4C8EDA" stroke="#2870c2" stroke-width="2px"/><text text-anchor="middle" pointer-events="none" font-family="sans-serif" dy="1.5625" font-size="25" fill="#FFFFFF"/><text text-anchor="middle" pointer-events="none" x="0" y="5" font-size="10px" fill="#FFFFFF" font-family="sans-serif"> judge_6</text></g><g class="node" transform="translate(353.3515810440757,5.785509357098007)"><circle class="outline" cx="0" cy="0" r="25" fill="#FFC454" stroke="#d7a013" stroke-width="2px"/><text text-anchor="middle" pointer-events="none" font-family="sans-serif" dy="1.5625" font-size="25" fill="#2A2C34"/><text text-anchor="middle" pointer-events="none" x="0" y="5" font-size="10px" fill="#2A2C34" font-family="sans-serif"> court_6</text></g><g class="node" transform="translate(579.4528420644256,10.511554918024189)"><circle class="outline" cx="0" cy="0" r="25" fill="#8DCC93" stroke="#5db665" stroke-width="2px"/><text text-anchor="middle" pointer-events="none" font-family="sans-serif" dy="1.5625" font-size="25" fill="#2A2C34"/><text text-anchor="middle" pointer-events="none" x="0" y="5" font-size="10px" fill="#2A2C34" font-family="sans-serif"> plaintiff_…</text></g><g class="node" transform="translate(579.0890201133066,151.04879472279728)"><circle class="outline" cx="0" cy="0" r="25" fill="#569480" stroke="#447666" stroke-width="2px"/><text text-anchor="middle" pointer-events="none" font-family="sans-serif" dy="1.5625" font-size="25" fill="#FFFFFF"/><text text-anchor="middle" pointer-events="none" x="0" y="5" font-size="10px" fill="#FFFFFF" font-family="sans-serif"> 57a921b…</text></g><g class="node" transform="translate(248.61068575409482,23.349130263013564)"><circle class="outline" cx="0" cy="0" r="25" fill="#569480" stroke="#447666" stroke-width="2px"/><text text-anchor="middle" pointer-events="none" font-family="sans-serif" dy="1.5625" font-size="25" fill="#FFFFFF"/><text text-anchor="middle" pointer-events="none" x="0" y="5" font-size="10px" fill="#FFFFFF" font-family="sans-serif"> 57acf28…</text></g><g class="node" transform="translate(160.09664504153574,172.44577364919118)"><circle class="outline" cx="0" cy="0" r="25" fill="#8DCC93" stroke="#5db665" stroke-width="2px"/><text text-anchor="middle" pointer-events="none" font-family="sans-serif" dy="1.5625" font-size="25" fill="#2A2C34"/><text text-anchor="middle" pointer-events="none" x="0" y="5" font-size="10px" fill="#2A2C34" font-family="sans-serif"> plaintiff_…</text></g><g class="node" transform="translate(99.07874552844012,44.64737132131813)"><circle class="outline" cx="0" cy="0" r="25" fill="#ECB5C9" stroke="#da7298" stroke-width="2px"/><text text-anchor="middle" pointer-events="none" font-family="sans-serif" dy="1.5625" font-size="25" fill="#2A2C34"/><text text-anchor="middle" pointer-events="none" x="0" y="5" font-size="10px" fill="#2A2C34" font-family="sans-serif"> defenda…</text></g><g class="node" transform="translate(66.57270458008989,213.9119549885814)"><circle class="outline" cx="0" cy="0" r="25" fill="#DA7194" stroke="#cc3c6c" stroke-width="2px"/><text text-anchor="middle" pointer-events="none" font-family="sans-serif" dy="1.5625" font-size="25" fill="#FFFFFF"/><text text-anchor="middle" pointer-events="none" x="0" y="5" font-size="10px" fill="#FFFFFF" font-family="sans-serif"> lawyer_…</text></g><g class="node" transform="translate(239.933200488109,146.91577421606127)"><circle class="outline" cx="0" cy="0" r="25" fill="#DA7194" stroke="#cc3c6c" stroke-width="2px"/><text text-anchor="middle" pointer-events="none" font-family="sans-serif" dy="1.5625" font-size="25" fill="#FFFFFF"/><text text-anchor="middle" pointer-events="none" x="0" y="5" font-size="10px" fill="#FFFFFF" font-family="sans-serif"> lawyer_…</text></g><g class="node" transform="translate(-125.16221029867457,-44.17925049482138)"><circle class="outline" cx="0" cy="0" r="25" fill="#8DCC93" stroke="#5db665" stroke-width="2px"/><text text-anchor="middle" pointer-events="none" font-family="sans-serif" dy="1.5625" font-size="25" fill="#2A2C34"/><text text-anchor="middle" pointer-events="none" x="0" y="5" font-size="10px" fill="#2A2C34" font-family="sans-serif"> plaintiff_…</text></g><g class="node" transform="translate(80.35616296462729,134.8955130359273)"><circle class="outline" cx="0" cy="0" r="25" fill="#8DCC93" stroke="#5db665" stroke-width="2px"/><text text-anchor="middle" pointer-events="none" font-family="sans-serif" dy="1.5625" font-size="25" fill="#2A2C34"/><text text-anchor="middle" pointer-events="none" x="0" y="5" font-size="10px" fill="#2A2C34" font-family="sans-serif"> plaintiff_…</text></g><g class="node" transform="translate(-84.38470508903538,94.11550865221182)"><circle class="outline" cx="0" cy="0" r="25" fill="#8DCC93" stroke="#5db665" stroke-width="2px"/><text text-anchor="middle" pointer-events="none" font-family="sans-serif" dy="1.5625" font-size="25" fill="#2A2C34"/><text text-anchor="middle" pointer-events="none" x="0" y="5" font-size="10px" fill="#2A2C34" font-family="sans-serif"> plaintiff_…</text></g><g class="node" transform="translate(70.51757892128975,-55.19894844056875)"><circle class="outline" cx="0" cy="0" r="25" fill="#8DCC93" stroke="#5db665" stroke-width="2px"/><text text-anchor="middle" pointer-events="none" font-family="sans-serif" dy="1.5625" font-size="25" fill="#2A2C34"/><text text-anchor="middle" pointer-events="none" x="0" y="5" font-size="10px" fill="#2A2C34" font-family="sans-serif"> plaintiff_…</text></g><g class="node" transform="translate(-44.56161386644527,161.39024083905989)"><circle class="outline" cx="0" cy="0" r="25" fill="#569480" stroke="#447666" stroke-width="2px"/><text text-anchor="middle" pointer-events="none" font-family="sans-serif" dy="1.5625" font-size="25" fill="#FFFFFF"/><text text-anchor="middle" pointer-events="none" x="0" y="5" font-size="10px" fill="#FFFFFF" font-family="sans-serif"> 57a91ce…</text></g><g class="node" transform="translate(-24.989988112473018,-41.89875415631315)"><circle class="outline" cx="0" cy="0" r="25" fill="#569480" stroke="#447666" stroke-width="2px"/><text text-anchor="middle" pointer-events="none" font-family="sans-serif" dy="1.5625" font-size="25" fill="#FFFFFF"/><text text-anchor="middle" pointer-events="none" x="0" y="5" font-size="10px" fill="#FFFFFF" font-family="sans-serif"> 5846848…</text></g><g class="node" transform="translate(180.8167551098029,-40.31424704868944)"><circle class="outline" cx="0" cy="0" r="25" fill="#569480" stroke="#447666" stroke-width="2px"/><text text-anchor="middle" pointer-events="none" font-family="sans-serif" dy="1.5625" font-size="25" fill="#FFFFFF"/><text text-anchor="middle" pointer-events="none" x="0" y="5" font-size="10px" fill="#FFFFFF" font-family="sans-serif"> 596267a…</text></g><g class="node" transform="translate(-112.08454606266577,15.23176562054364)"><circle class="outline" cx="0" cy="0" r="25" fill="#569480" stroke="#447666" stroke-width="2px"/><text text-anchor="middle" pointer-events="none" font-family="sans-serif" dy="1.5625" font-size="25" fill="#FFFFFF"/><text text-anchor="middle" pointer-events="none" x="0" y="5" font-size="10px" fill="#FFFFFF" font-family="sans-serif"> 5962681…</text></g></g></svg>