<svg xmlns="http://www.w3.org/2000/svg" width="459.62774658203125" height="319.8509521484375" viewBox="-179.89476013183594 -58.39044189453125 459.62774658203125 319.8509521484375"><title>Neo4j Graph Visualization</title><desc>Created using Neo4j (http://www.neo4j.com/)</desc><g class="layer relationships"><g class="relationship" transform="translate(-150.8947554483678 18.244254155832234) rotate(431.8494153026777)"><path class="outline" fill="#604A0E" stroke="none" d="M 25 0.5 L 42.457536007361284 0.5 L 42.457536007361284 -0.5 L 25 -0.5 Z M 61.355973507361284 0.5 L 78.81350951472257 0.5 L 78.81350951472257 3.5 L 85.81350951472257 0 L 78.81350951472257 -3.5 L 78.81350951472257 -0.5 L 61.355973507361284 -0.5 Z"/><text text-anchor="middle" pointer-events="none" font-size="8px" fill="#000000" x="51.906754757361284" y="3" font-family="sans-serif">sue</text></g><g class="relationship" transform="translate(-132.0601425533808 232.46051870475077) rotate(278.19503878479196)"><path class="outline" fill="#604A0E" stroke="none" d="M 25 0.5 L 42.070973790110806 0.5 L 42.070973790110806 -0.5 L 25 -0.5 Z M 60.969411290110806 0.5 L 78.04038508022161 0.5 L 78.04038508022161 3.5 L 85.04038508022161 0 L 78.04038508022161 -3.5 L 78.04038508022161 -0.5 L 60.969411290110806 -0.5 Z"/><text text-anchor="middle" pointer-events="none" font-size="8px" fill="#000000" x="51.520192540110806" y="3" font-family="sans-serif">sue</text></g><g class="relationship" transform="translate(2.414572553649709 100.88102576765638) rotate(529.1988252096918)"><path class="outline" fill="#604A0E" stroke="none" d="M 25 0.5 L 47.51663167797587 0.5 L 47.51663167797587 -0.5 L 25 -0.5 Z M 66.41506917797588 0.5 L 88.93170085595175 0.5 L 88.93170085595175 3.5 L 95.93170085595175 0 L 88.93170085595175 -3.5 L 88.93170085595175 -0.5 L 66.41506917797588 -0.5 Z"/><text text-anchor="middle" pointer-events="none" font-size="8px" fill="#000000" x="56.96585042797587" y="3" transform="rotate(180 56.96585042797587 0)" font-family="sans-serif">sue</text></g><g class="relationship" transform="translate(158.42592423204135 211.21517857329223) rotate(255.4547655605337)"><path class="outline" fill="#604A0E" stroke="none" d="M 25 0.5 L 48.74764137302789 0.5 L 48.74764137302789 -0.5 L 25 -0.5 Z M 67.64607887302789 0.5 L 91.39372024605578 0.5 L 91.39372024605578 3.5 L 98.39372024605578 0 L 91.39372024605578 -3.5 L 91.39372024605578 -0.5 L 67.64607887302789 -0.5 Z"/><text text-anchor="middle" pointer-events="none" font-size="8px" fill="#000000" x="58.19686012302789" y="3" transform="rotate(180 58.19686012302789 0)" font-family="sans-serif">sue</text></g><g class="relationship" transform="translate(226.37360054170114 165.99511833231958) rotate(216.87578045974834)"><path class="outline" fill="#604A0E" stroke="none" d="M 25 0.5 L 48.89135737922383 0.5 L 48.89135737922383 -0.5 L 25 -0.5 Z M 67.78979487922382 0.5 L 91.68115225844765 0.5 L 91.68115225844765 3.5 L 98.68115225844765 0 L 91.68115225844765 -3.5 L 91.68115225844765 -0.5 L 67.78979487922382 -0.5 Z"/><text text-anchor="middle" pointer-events="none" font-size="8px" fill="#000000" x="58.34057612922383" y="3" transform="rotate(180 58.34057612922383 0)" font-family="sans-serif">sue</text></g><g class="relationship" transform="translate(250.73296703202337 86.71060194134506) rotate(537.6473155319916)"><path class="outline" fill="#604A0E" stroke="none" d="M 25 0.5 L 48.75112448832906 0.5 L 48.75112448832906 -0.5 L 25 -0.5 Z M 67.64956198832905 0.5 L 91.40068647665812 0.5 L 91.40068647665812 3.5 L 98.40068647665812 0 L 91.40068647665812 -3.5 L 91.40068647665812 -0.5 L 67.64956198832905 -0.5 Z"/><text text-anchor="middle" pointer-events="none" font-size="8px" fill="#000000" x="58.20034323832906" y="3" transform="rotate(180 58.20034323832906 0)" font-family="sans-serif">sue</text></g><g class="relationship" transform="translate(219.36560436900837 10.606972094750256) rotate(498.55699531737446)"><path class="outline" fill="#604A0E" stroke="none" d="M 25 0.5 L 48.36850278836464 0.5 L 48.36850278836464 -0.5 L 25 -0.5 Z M 67.26694028836464 0.5 L 90.63544307672927 0.5 L 90.63544307672927 3.5 L 97.63544307672927 0 L 90.63544307672927 -3.5 L 90.63544307672927 -0.5 L 67.26694028836464 -0.5 Z"/><text text-anchor="middle" pointer-events="none" font-size="8px" fill="#000000" x="57.81772153836464" y="3" transform="rotate(180 57.81772153836464 0)" font-family="sans-serif">sue</text></g><g class="relationship" transform="translate(147.47452892901603 -29.390443619556926) rotate(459.39043164690963)"><path class="outline" fill="#604A0E" stroke="none" d="M 25 0.5 L 48.4570161541482 0.5 L 48.4570161541482 -0.5 L 25 -0.5 Z M 67.35545365414819 0.5 L 90.8124698082964 0.5 L 90.8124698082964 3.5 L 97.8124698082964 0 L 90.8124698082964 -3.5 L 90.8124698082964 -0.5 L 67.35545365414819 -0.5 Z"/><text text-anchor="middle" pointer-events="none" font-size="8px" fill="#000000" x="57.9062349041482" y="3" transform="rotate(180 57.9062349041482 0)" font-family="sans-serif">sue</text></g><g class="relationship" transform="translate(62.7518575498562 -8.678136691815032) rotate(417.22176908549744)"><path class="outline" fill="#604A0E" stroke="none" d="M 25 0.5 L 46.79014094204144 0.5 L 46.79014094204144 -0.5 L 25 -0.5 Z M 65.68857844204143 0.5 L 87.47871938408288 0.5 L 87.47871938408288 3.5 L 94.47871938408288 0 L 87.47871938408288 -3.5 L 87.47871938408288 -0.5 L 65.68857844204143 -0.5 Z"/><text text-anchor="middle" pointer-events="none" font-size="8px" fill="#000000" x="56.23935969204144" y="3" font-family="sans-serif">sue</text></g><g class="relationship" transform="translate(76.39095005259647 199.7251711452074) rotate(295.3078674102992)"><path class="outline" fill="#604A0E" stroke="none" d="M 25 0.5 L 46.75545703816848 0.5 L 46.75545703816848 -0.5 L 25 -0.5 Z M 65.65389453816849 0.5 L 87.40935157633696 0.5 L 87.40935157633696 3.5 L 94.40935157633696 0 L 87.40935157633696 -3.5 L 87.40935157633696 -0.5 L 65.65389453816849 -0.5 Z"/><text text-anchor="middle" pointer-events="none" font-size="8px" fill="#000000" x="56.20467578816848" y="3" font-family="sans-serif">sue</text></g><g class="relationship" transform="translate(2.414572553649709 100.88102576765638) rotate(355.83476490767976)"><path class="outline" fill="#604A0E" stroke="none" d="M 25 0.5 L 49.72718947453724 0.5 L 49.72718947453724 -0.5 L 25 -0.5 Z M 68.62562697453724 0.5 L 93.35281644907448 0.5 L 93.35281644907448 3.5 L 100.35281644907448 0 L 93.35281644907448 -3.5 L 93.35281644907448 -0.5 L 68.62562697453724 -0.5 Z"/><text text-anchor="middle" pointer-events="none" font-size="8px" fill="#000000" x="59.17640822453724" y="3" font-family="sans-serif">sue</text></g></g><g class="layer nodes"><g class="node" transform="translate(-150.8947554483678,18.244254155832234)"><circle class="outline" cx="0" cy="0" r="25" fill="#8DCC93" stroke="#5db665" stroke-width="2px"/><text text-anchor="middle" pointer-events="none" font-family="sans-serif" dy="1.5625" font-size="25" fill="#2A2C34"/><text text-anchor="middle" pointer-events="none" x="0" y="5" font-size="10px" fill="#2A2C34" font-family="sans-serif"> plaintiff_…</text></g><g class="node" transform="translate(-116.37463075441488,123.54380250283822)"><circle class="outline" cx="0" cy="0" r="25" fill="#ECB5C9" stroke="#da7298" stroke-width="2px"/><text text-anchor="middle" pointer-events="none" font-family="sans-serif" dy="1.5625" font-size="25" fill="#2A2C34"/><text text-anchor="middle" pointer-events="none" x="0" y="5" font-size="10px" fill="#2A2C34" font-family="sans-serif"> defenda…</text></g><g class="node" transform="translate(-132.0601425533808,232.46051870475077)"><circle class="outline" cx="0" cy="0" r="25" fill="#8DCC93" stroke="#5db665" stroke-width="2px"/><text text-anchor="middle" pointer-events="none" font-family="sans-serif" dy="1.5625" font-size="25" fill="#2A2C34"/><text text-anchor="middle" pointer-events="none" x="0" y="5" font-size="10px" fill="#2A2C34" font-family="sans-serif"> plaintiff_…</text></g><g class="node" transform="translate(2.414572553649709,100.88102576765638)"><circle class="outline" cx="0" cy="0" r="25" fill="#8DCC93" stroke="#5db665" stroke-width="2px"/><text text-anchor="middle" pointer-events="none" font-family="sans-serif" dy="1.5625" font-size="25" fill="#2A2C34"/><text text-anchor="middle" pointer-events="none" x="0" y="5" font-size="10px" fill="#2A2C34" font-family="sans-serif"> plaintiff_0</text></g><g class="node" transform="translate(158.42592423204135,211.21517857329223)"><circle class="outline" cx="0" cy="0" r="25" fill="#8DCC93" stroke="#5db665" stroke-width="2px"/><text text-anchor="middle" pointer-events="none" font-family="sans-serif" dy="1.5625" font-size="25" fill="#2A2C34"/><text text-anchor="middle" pointer-events="none" x="0" y="5" font-size="10px" fill="#2A2C34" font-family="sans-serif"> plaintiff_…</text></g><g class="node" transform="translate(127.43629859466685,91.77626825082966)"><circle class="outline" cx="0" cy="0" r="25" fill="#ECB5C9" stroke="#da7298" stroke-width="2px"/><text text-anchor="middle" pointer-events="none" font-family="sans-serif" dy="1.5625" font-size="25" fill="#2A2C34"/><text text-anchor="middle" pointer-events="none" x="0" y="5" font-size="10px" fill="#2A2C34" font-family="sans-serif"> defenda…</text></g><g class="node" transform="translate(226.37360054170114,165.99511833231958)"><circle class="outline" cx="0" cy="0" r="25" fill="#8DCC93" stroke="#5db665" stroke-width="2px"/><text text-anchor="middle" pointer-events="none" font-family="sans-serif" dy="1.5625" font-size="25" fill="#2A2C34"/><text text-anchor="middle" pointer-events="none" x="0" y="5" font-size="10px" fill="#2A2C34" font-family="sans-serif"> plaintiff_…</text></g><g class="node" transform="translate(250.73296703202337,86.71060194134506)"><circle class="outline" cx="0" cy="0" r="25" fill="#8DCC93" stroke="#5db665" stroke-width="2px"/><text text-anchor="middle" pointer-events="none" font-family="sans-serif" dy="1.5625" font-size="25" fill="#2A2C34"/><text text-anchor="middle" pointer-events="none" x="0" y="5" font-size="10px" fill="#2A2C34" font-family="sans-serif"> plaintiff_…</text></g><g class="node" transform="translate(219.36560436900837,10.606972094750256)"><circle class="outline" cx="0" cy="0" r="25" fill="#8DCC93" stroke="#5db665" stroke-width="2px"/><text text-anchor="middle" pointer-events="none" font-family="sans-serif" dy="1.5625" font-size="25" fill="#2A2C34"/><text text-anchor="middle" pointer-events="none" x="0" y="5" font-size="10px" fill="#2A2C34" font-family="sans-serif"> plaintiff_…</text></g><g class="node" transform="translate(147.47452892901603,-29.390443619556926)"><circle class="outline" cx="0" cy="0" r="25" fill="#8DCC93" stroke="#5db665" stroke-width="2px"/><text text-anchor="middle" pointer-events="none" font-family="sans-serif" dy="1.5625" font-size="25" fill="#2A2C34"/><text text-anchor="middle" pointer-events="none" x="0" y="5" font-size="10px" fill="#2A2C34" font-family="sans-serif"> plaintiff_…</text></g><g class="node" transform="translate(62.7518575498562,-8.678136691815032)"><circle class="outline" cx="0" cy="0" r="25" fill="#8DCC93" stroke="#5db665" stroke-width="2px"/><text text-anchor="middle" pointer-events="none" font-family="sans-serif" dy="1.5625" font-size="25" fill="#2A2C34"/><text text-anchor="middle" pointer-events="none" x="0" y="5" font-size="10px" fill="#2A2C34" font-family="sans-serif"> plaintiff_…</text></g><g class="node" transform="translate(76.39095005259647,199.7251711452074)"><circle class="outline" cx="0" cy="0" r="25" fill="#8DCC93" stroke="#5db665" stroke-width="2px"/><text text-anchor="middle" pointer-events="none" font-family="sans-serif" dy="1.5625" font-size="25" fill="#2A2C34"/><text text-anchor="middle" pointer-events="none" x="0" y="5" font-size="10px" fill="#2A2C34" font-family="sans-serif"> plaintiff_…</text></g></g></svg>