<svg xmlns="http://www.w3.org/2000/svg" width="559.3297119140625" height="306.114013671875" viewBox="-205.7364959716797 -81.43333435058594 559.3297119140625 306.114013671875"><title>Neo4j Graph Visualization</title><desc>Created using Neo4j (http://www.neo4j.com/)</desc><g class="layer relationships"><g class="relationship" transform="translate(169.34366470248412 151.26807195246846) rotate(366.1923959951433)"><path class="outline" fill="#4C8EDA" stroke="none" d="M 25 0.5 L 55.125274828272225 0.5 L 55.125274828272225 -0.5 L 25 -0.5 Z M 94.03543107827223 0.5 L 124.16070590654445 0.5 L 124.16070590654445 3.5 L 131.16070590654445 0 L 124.16070590654445 -3.5 L 124.16070590654445 -0.5 L 94.03543107827223 -0.5 Z"/><text text-anchor="middle" pointer-events="none" font-size="8px" fill="#000000" x="74.58035295327223" y="3" font-family="sans-serif">authorize</text></g><g class="relationship" transform="translate(263.1503152653432 -5.192183648460826) rotate(430.47872921150474)"><path class="outline" fill="#4C8EDA" stroke="none" d="M 25 0.5 L 68.98215757105649 0.5 L 68.98215757105649 -0.5 L 25 -0.5 Z M 107.89231382105649 0.5 L 151.87447139211298 0.5 L 151.87447139211298 3.5 L 158.87447139211298 0 L 151.87447139211298 -3.5 L 151.87447139211298 -0.5 L 107.89231382105649 -0.5 Z"/><text text-anchor="middle" pointer-events="none" font-size="8px" fill="#000000" x="88.43723569605649" y="3" font-family="sans-serif">authorize</text></g><g class="relationship" transform="translate(106.84661004519126 -19.616267179195958) rotate(516.295861795955)"><path class="outline" fill="#4C8EDA" stroke="none" d="M 25 0.5 L 131.90114010245247 0.5 L 131.90114010245247 -0.5 L 25 -0.5 Z M 170.81129635245247 0.5 L 277.71243645490495 0.5 L 277.71243645490495 3.5 L 284.71243645490495 0 L 277.71243645490495 -3.5 L 277.71243645490495 -0.5 L 170.81129635245247 -0.5 Z"/><text text-anchor="middle" pointer-events="none" font-size="8px" fill="#000000" x="151.35621822745247" y="3" transform="rotate(180 151.35621822745247 0)" font-family="sans-serif">authorize</text></g><g class="relationship" transform="translate(-110.56382514759045 -52.43333997927657) rotate(472.81206842850867)"><path class="outline" fill="#4C8EDA" stroke="none" d="M 25 0.5 L 62.382813226167286 0.5 L 62.382813226167286 -0.5 L 25 -0.5 Z M 101.29296947616729 0.5 L 138.67578270233457 0.5 L 138.67578270233457 3.5 L 145.67578270233457 0 L 138.67578270233457 -3.5 L 138.67578270233457 -0.5 L 101.29296947616729 -0.5 Z"/><text text-anchor="middle" pointer-events="none" font-size="8px" fill="#000000" x="81.83789135116729" y="3" transform="rotate(180 81.83789135116729 0)" font-family="sans-serif">authorize</text></g><g class="relationship" transform="translate(1.7130945791894483 195.6806816244362) rotate(206.96523019842107)"><path class="outline" fill="#4C8EDA" stroke="none" d="M 25 0.5 L 77.15331223678541 0.5 L 77.15331223678541 -0.5 L 25 -0.5 Z M 116.06346848678541 0.5 L 168.21678072357082 0.5 L 168.21678072357082 3.5 L 175.21678072357082 0 L 168.21678072357082 -3.5 L 168.21678072357082 -0.5 L 116.06346848678541 -0.5 Z"/><text text-anchor="middle" pointer-events="none" font-size="8px" fill="#000000" x="96.60839036178541" y="3" transform="rotate(180 96.60839036178541 0)" font-family="sans-serif">authorize</text></g><g class="relationship" transform="translate(169.34366470248412 151.26807195246846) rotate(300.9450382028739)"><path class="outline" fill="#D9C8AE" stroke="none" d="M 24.018736134675446,6.953439040707552 L 24.277555179777966,5.987513214418485 A 254.39473612195582 254.39473612195582 0 0 0 52.647449226324895,11.880835927007496 L 52.500149367818075,12.86992780933386 A 255.39473612195582 255.39473612195582 0 0 1 24.018736134675446,6.953439040707552 Z M 122.89476598920862,13.544051713948477 L 122.76643519968292,12.552320294430189 A 254.39473612195582 254.39473612195582 0 0 0 151.2439890723227,7.203388977063467 L 150.5231695442679,4.291273043936004 L 158.15906283762925,6.0068294004568115 L 152.2050817763958,11.086210221233419 L 151.48426224834097,8.174094288105955 A 255.39473612195582 255.39473612195582 0 0 1 122.89476598920862,13.544051713948477"/><text text-anchor="middle" pointer-events="none" font-size="8px" fill="#000000" x="87.67890706161427" y="18.144116684098123" font-family="sans-serif">lawyer_connected</text></g><g class="relationship" transform="translate(263.1503152653432 -5.192183648460826) rotate(480.9450382028739)"><path class="outline" fill="#D9C8AE" stroke="none" d="M 24.018736134675446,6.953439040707552 L 24.277555179777966,5.987513214418485 A 254.39473612195582 254.39473612195582 0 0 0 52.647449226324895,11.880835927007496 L 52.500149367818075,12.86992780933386 A 255.39473612195582 255.39473612195582 0 0 1 24.018736134675446,6.953439040707552 Z M 122.89476598920862,13.544051713948477 L 122.76643519968292,12.552320294430189 A 254.39473612195582 254.39473612195582 0 0 0 151.2439890723227,7.203388977063467 L 150.5231695442679,4.291273043936004 L 158.15906283762925,6.0068294004568115 L 152.2050817763958,11.086210221233419 L 151.48426224834097,8.174094288105955 A 255.39473612195582 255.39473612195582 0 0 1 122.89476598920862,13.544051713948477"/><text text-anchor="middle" pointer-events="none" font-size="8px" fill="#000000" x="87.67890706161427" y="18.144116684098123" transform="rotate(180 87.67890706161427 15.144116684098123)" font-family="sans-serif">lawyer_connected</text></g><g class="relationship" transform="translate(106.84661004519126 -19.616267179195958) rotate(188.58372540661975)"><path class="outline" fill="#D9C8AE" stroke="none" d="M 24.018736134675446,6.953439040707552 L 24.277555179777966,5.987513214418485 A 327.4555860964885 327.4555860964885 0 0 0 71.30712838993665,14.965279331436307 L 71.19193057228298,15.958621902157915 A 328.4555860964885 328.4555860964885 0 0 1 24.018736134675446,6.953439040707552 Z M 141.64573082591062,16.52183426562334 L 141.5464284090244,15.526776965765407 A 327.4555860964885 327.4555860964885 0 0 0 188.7135196904961,7.302025247515308 L 187.98348887910913,4.392204803840874 L 195.62477252763426,6.083590094891445 L 189.68689410567873,11.18178583908122 L 188.95686329429176,8.271965395406786 A 328.4555860964885 328.4555860964885 0 0 1 141.64573082591062,16.52183426562334"/><text text-anchor="middle" pointer-events="none" font-size="8px" fill="#000000" x="106.40768229277498" y="20.634813222807963" transform="rotate(180 106.40768229277498 17.634813222807963)" font-family="sans-serif">lawyer_connected</text></g><g class="relationship" transform="translate(106.84661004519126 -19.616267179195958) rotate(476.02711977678854)"><path class="outline" fill="#D9C8AE" stroke="none" d="M 24.018736134675446,-6.953439040707552 L 24.277555179777966,-5.987513214418485 A 365.84387114031557 365.84387114031557 0 0 1 81.14809391694885,-16.49355284842477 L 81.04472516970128,-17.488195951297598 A 366.84387114031557 366.84387114031557 0 0 0 24.018736134675446,-6.953439040707552 Z M 151.51458132145376,-18.006438913549005 L 151.42585238983676,-17.010383103519246 A 365.84387114031557 365.84387114031557 0 0 1 208.4447567634349,-7.34189878167058 L 207.71100244425273,-4.433015044034868 L 215.35444453778194,-6.114619326518131 L 209.42309585567781,-11.22041043185153 L 208.68934153649565,-8.311526694215818 A 366.84387114031557 366.84387114031557 0 0 0 151.51458132145376,-18.006438913549005"/><text text-anchor="middle" pointer-events="none" font-size="8px" fill="#000000" x="116.27085686906311" y="-15.943434761126468" transform="rotate(180 116.27085686906311 -18.94343476112647)" font-family="sans-serif">lawyer_connected</text></g><g class="relationship" transform="translate(-110.56382514759045 -52.43333997927657) rotate(368.58372540661975)"><path class="outline" fill="#D9C8AE" stroke="none" d="M 24.018736134675446,6.953439040707552 L 24.277555179777966,5.987513214418485 A 327.4555860964885 327.4555860964885 0 0 0 71.30712838993665,14.965279331436307 L 71.19193057228298,15.958621902157915 A 328.4555860964885 328.4555860964885 0 0 1 24.018736134675446,6.953439040707552 Z M 141.64573082591062,16.52183426562334 L 141.5464284090244,15.526776965765407 A 327.4555860964885 327.4555860964885 0 0 0 188.7135196904961,7.302025247515308 L 187.98348887910913,4.392204803840874 L 195.62477252763426,6.083590094891445 L 189.68689410567873,11.18178583908122 L 188.95686329429176,8.271965395406786 A 328.4555860964885 328.4555860964885 0 0 1 141.64573082591062,16.52183426562334"/><text text-anchor="middle" pointer-events="none" font-size="8px" fill="#000000" x="106.40768229277498" y="20.634813222807963" font-family="sans-serif">lawyer_connected</text></g><g class="relationship" transform="translate(-110.56382514759045 -52.43333997927657) rotate(425.6522274778582)"><path class="outline" fill="#D9C8AE" stroke="none" d="M 24.018736134675446,-6.953439040707552 L 24.277555179777966,-5.987513214418485 A 429.48032854872724 429.48032854872724 0 0 1 97.49566265862848,-18.942658567069657 L 97.40732431453097,-19.938749093559125 A 430.48032854872724 430.48032854872724 0 0 0 24.018736134675446,-6.953439040707552 Z M 167.89319441773614,-20.396301722433805 L 167.81779503578974,-19.39914830735563 A 429.48032854872724 429.48032854872724 0 0 1 241.1979194012295,-7.395632072292689 L 240.4591474342791,-4.48801862122183 L 248.1054794482199,-6.156433057920169 L 242.18294869049674,-11.272450007053836 L 241.44417672354632,-8.364836555982976 A 430.48032854872724 430.48032854872724 0 0 0 167.89319441773614,-20.396301722433805"/><text text-anchor="middle" pointer-events="none" font-size="8px" fill="#000000" x="132.6441242309199" y="-18.112641480868206" font-family="sans-serif">lawyer_connected</text></g><g class="relationship" transform="translate(1.7130945791894483 195.6806816244362) rotate(296.02711977678854)"><path class="outline" fill="#D9C8AE" stroke="none" d="M 24.018736134675446,-6.953439040707552 L 24.277555179777966,-5.987513214418485 A 365.84387114031557 365.84387114031557 0 0 1 81.14809391694885,-16.49355284842477 L 81.04472516970128,-17.488195951297598 A 366.84387114031557 366.84387114031557 0 0 0 24.018736134675446,-6.953439040707552 Z M 151.51458132145376,-18.006438913549005 L 151.42585238983676,-17.010383103519246 A 365.84387114031557 365.84387114031557 0 0 1 208.4447567634349,-7.34189878167058 L 207.71100244425273,-4.433015044034868 L 215.35444453778194,-6.114619326518131 L 209.42309585567781,-11.22041043185153 L 208.68934153649565,-8.311526694215818 A 366.84387114031557 366.84387114031557 0 0 0 151.51458132145376,-18.006438913549005"/><text text-anchor="middle" pointer-events="none" font-size="8px" fill="#000000" x="116.27085686906311" y="-15.943434761126468" font-family="sans-serif">lawyer_connected</text></g><g class="relationship" transform="translate(1.7130945791894483 195.6806816244362) rotate(245.65222747785822)"><path class="outline" fill="#D9C8AE" stroke="none" d="M 24.018736134675446,-6.953439040707552 L 24.277555179777966,-5.987513214418485 A 429.48032854872724 429.48032854872724 0 0 1 97.49566265862848,-18.942658567069657 L 97.40732431453097,-19.938749093559125 A 430.48032854872724 430.48032854872724 0 0 0 24.018736134675446,-6.953439040707552 Z M 167.89319441773614,-20.396301722433805 L 167.81779503578974,-19.39914830735563 A 429.48032854872724 429.48032854872724 0 0 1 241.1979194012295,-7.395632072292689 L 240.4591474342791,-4.48801862122183 L 248.1054794482199,-6.156433057920169 L 242.18294869049674,-11.272450007053836 L 241.44417672354632,-8.364836555982976 A 430.48032854872724 430.48032854872724 0 0 0 167.89319441773614,-20.396301722433805"/><text text-anchor="middle" pointer-events="none" font-size="8px" fill="#000000" x="132.6441242309199" y="-18.112641480868206" transform="rotate(180 132.6441242309199 -21.112641480868206)" font-family="sans-serif">lawyer_connected</text></g></g><g class="layer nodes"><g class="node" transform="translate(169.34366470248412,151.26807195246846)"><circle class="outline" cx="0" cy="0" r="25" fill="#8DCC93" stroke="#5db665" stroke-width="2px"/><text text-anchor="middle" pointer-events="none" font-family="sans-serif" dy="1.5625" font-size="25" fill="#2A2C34"/><text text-anchor="middle" pointer-events="none" x="0" y="5" font-size="10px" fill="#2A2C34" font-family="sans-serif"> plaintiff_4</text></g><g class="node" transform="translate(324.59321791793036,168.11272379317415)"><circle class="outline" cx="0" cy="0" r="25" fill="#DA7194" stroke="#cc3c6c" stroke-width="2px"/><text text-anchor="middle" pointer-events="none" font-family="sans-serif" dy="1.5625" font-size="25" fill="#FFFFFF"/><text text-anchor="middle" pointer-events="none" x="0" y="5" font-size="10px" fill="#FFFFFF" font-family="sans-serif"> lawyer_1</text></g><g class="node" transform="translate(263.1503152653432,-5.192183648460826)"><circle class="outline" cx="0" cy="0" r="25" fill="#8DCC93" stroke="#5db665" stroke-width="2px"/><text text-anchor="middle" pointer-events="none" font-family="sans-serif" dy="1.5625" font-size="25" fill="#2A2C34"/><text text-anchor="middle" pointer-events="none" x="0" y="5" font-size="10px" fill="#2A2C34" font-family="sans-serif"> plaintiff_1</text></g><g class="node" transform="translate(106.84661004519126,-19.616267179195958)"><circle class="outline" cx="0" cy="0" r="25" fill="#8DCC93" stroke="#5db665" stroke-width="2px"/><text text-anchor="middle" pointer-events="none" font-family="sans-serif" dy="1.5625" font-size="25" fill="#2A2C34"/><text text-anchor="middle" pointer-events="none" x="0" y="5" font-size="10px" fill="#2A2C34" font-family="sans-serif"> plaintiff_…</text></g><g class="node" transform="translate(-176.7364907713165,104.89244025176211)"><circle class="outline" cx="0" cy="0" r="25" fill="#DA7194" stroke="#cc3c6c" stroke-width="2px"/><text text-anchor="middle" pointer-events="none" font-family="sans-serif" dy="1.5625" font-size="25" fill="#FFFFFF"/><text text-anchor="middle" pointer-events="none" x="0" y="5" font-size="10px" fill="#FFFFFF" font-family="sans-serif"> lawyer_2</text></g><g class="node" transform="translate(-110.56382514759045,-52.43333997927657)"><circle class="outline" cx="0" cy="0" r="25" fill="#8DCC93" stroke="#5db665" stroke-width="2px"/><text text-anchor="middle" pointer-events="none" font-family="sans-serif" dy="1.5625" font-size="25" fill="#2A2C34"/><text text-anchor="middle" pointer-events="none" x="0" y="5" font-size="10px" fill="#2A2C34" font-family="sans-serif"> plaintiff_6</text></g><g class="node" transform="translate(1.7130945791894483,195.6806816244362)"><circle class="outline" cx="0" cy="0" r="25" fill="#8DCC93" stroke="#5db665" stroke-width="2px"/><text text-anchor="middle" pointer-events="none" font-family="sans-serif" dy="1.5625" font-size="25" fill="#2A2C34"/><text text-anchor="middle" pointer-events="none" x="0" y="5" font-size="10px" fill="#2A2C34" font-family="sans-serif"> plaintiff_…</text></g></g></svg>